<svg width="23" height="16" viewBox="0 0 23 16" fill="none" xmlns="http://www.w3.org/2000/svg">
<path d="M15.2637 14.0955C15.0993 14.2614 15.0993 14.5287 15.2637 14.6947C15.4303 14.8628 15.702 14.8628 15.8686 14.6947L21.8029 8.70374C22.189 8.314 22.189 7.686 21.8029 7.29626L15.8686 1.30534C15.702 1.13718 15.4303 1.13718 15.2637 1.30534C15.0993 1.47126 15.0993 1.73862 15.2637 1.90454L19.1859 5.86416C19.8113 6.49548 19.3641 7.5679 18.4754 7.5679H0.932099C0.693457 7.5679 0.5 7.76136 0.5 8C0.5 8.23864 0.693457 8.4321 0.932099 8.4321H18.4754C19.3641 8.4321 19.8113 9.50452 19.1859 10.1358L15.2637 14.0955Z" fill="#FBFBFB" stroke="#FBFBFB" stroke-width="0.5"/>
</svg>
