<svg width="23" height="16" viewBox="0 0 23 16" fill="none" xmlns="http://www.w3.org/2000/svg">
<path d="M15.7637 14.0955C15.5993 14.2614 15.5993 14.5287 15.7637 14.6947C15.9303 14.8628 16.202 14.8628 16.3686 14.6947L22.3029 8.70374C22.689 8.314 22.689 7.686 22.3029 7.29626L16.3686 1.30534C16.202 1.13718 15.9303 1.13718 15.7637 1.30534C15.5993 1.47126 15.5993 1.73862 15.7637 1.90454L19.6859 5.86416C20.3113 6.49548 19.8641 7.5679 18.9754 7.5679H1.4321C1.19346 7.5679 1 7.76136 1 8C1 8.23864 1.19346 8.4321 1.4321 8.4321H18.9754C19.8641 8.4321 20.3113 9.50452 19.6859 10.1358L15.7637 14.0955Z" fill="#101011" stroke="#101011" stroke-width="0.5"/>
</svg>
