<svg width="18" height="18" viewBox="0 0 18 18" fill="none" xmlns="http://www.w3.org/2000/svg">
<path fill-rule="evenodd" clip-rule="evenodd" d="M1.33031 0C0.59583 0 0 0.57769 0 1.28939V16.711C0 17.4228 0.5959 18 1.33031 18H16.6697C17.4045 18 18 17.4227 18 16.7108V1.28939C18 0.57769 17.4045 0 16.6697 0H1.33031ZM5.46993 6.96004V15.0637H2.7764V6.96004H5.46993ZM5.64747 4.45389C5.64747 5.23155 5.06282 5.85382 4.12373 5.85382L4.10608 5.85375C3.20207 5.85375 2.61764 5.23148 2.61764 4.45382C2.61764 3.65852 3.21972 3.05362 4.14159 3.05362C5.06282 3.05362 5.62989 3.65852 5.64747 4.45389ZM9.6542 15.0637H6.96084C6.96084 15.0637 6.99614 7.7205 6.96098 6.96032H9.6544V8.1074C10.0124 7.5553 10.6532 6.77006 12.0819 6.77006C13.854 6.77006 15.1826 7.9283 15.1826 10.4173V15.0637H12.4894V10.7289C12.4894 9.6394 12.0993 8.8964 11.125 8.8964C10.3807 8.8964 9.9375 9.3975 9.7429 9.8816C9.6717 10.0544 9.6542 10.2969 9.6542 10.5387V15.0637Z" fill="#283849"/>
</svg>
