<svg width="65" height="43" viewBox="0 0 65 43" fill="none" xmlns="http://www.w3.org/2000/svg">
<path fill-rule="evenodd" clip-rule="evenodd" d="M45.8333 26.6667H37.3759C35.9613 26.6667 34.6048 27.2286 33.6045 28.2288L31.3955 30.4379C30.3952 31.4382 29.0387 32 27.6241 32H19.1667C14.7484 32 11.1667 28.4183 11.1667 24C11.1667 19.5818 14.7484 16 19.1667 16H27.6241C29.0387 16 30.3952 15.4382 31.3955 14.4379L33.6045 12.2288C34.6048 11.2286 35.9613 10.6667 37.3759 10.6667H45.8333C50.2516 10.6667 53.8333 14.2484 53.8333 18.6667C53.8333 23.085 50.2516 26.6667 45.8333 26.6667ZM37.3759 16C35.9613 16 34.6048 16.5619 33.6045 17.5622L31.3955 19.7712C30.3952 20.7715 29.0387 21.3334 27.6241 21.3334H19.1667C17.6939 21.3334 16.5 22.5272 16.5 24C16.5 25.4728 17.6939 26.6667 19.1667 26.6667H27.6241C29.0387 26.6667 30.3952 26.1048 31.3955 25.1046L33.6045 22.8955C34.6048 21.8952 35.9613 21.3334 37.3759 21.3334H45.8333C47.3061 21.3334 48.5 20.1395 48.5 18.6667C48.5 17.1939 47.3061 16 45.8333 16H37.3759Z" fill="#1E3251"/>
<path fill-rule="evenodd" clip-rule="evenodd" d="M45.8333 37.3333H37.3759C35.9613 37.3333 34.6048 37.8952 33.6045 38.8955L31.3955 41.1045C30.3952 42.1048 29.0387 42.6667 27.6241 42.6667H19.1667C8.85735 42.6667 0.5 34.3093 0.5 24C0.5 13.6907 8.85735 5.33333 19.1667 5.33333H27.6241C29.0387 5.33333 30.3952 4.77147 31.3955 3.7712L33.6045 1.56209C34.6048 0.561906 35.9613 0 37.3759 0H45.8333C56.1427 0 64.5 8.35733 64.5 18.6667C64.5 28.976 56.1427 37.3333 45.8333 37.3333ZM37.3759 5.33333C35.9613 5.33333 34.6048 5.8952 33.6045 6.89547L31.3955 9.10453C30.3952 10.1048 29.0387 10.6667 27.6241 10.6667H19.1667C11.8029 10.6667 5.83333 16.6363 5.83333 24C5.83333 31.3637 11.8029 37.3333 19.1667 37.3333H27.6241C29.0387 37.3333 30.3952 36.7715 31.3955 35.7712L33.6045 33.5621C34.6048 32.5619 35.9613 32 37.3759 32H45.8333C53.1971 32 59.1667 26.0304 59.1667 18.6667C59.1667 11.3029 53.1971 5.33333 45.8333 5.33333H37.3759Z" fill="#1E3251"/>
</svg>
