<svg width="55" height="62" viewBox="0 0 55 62" fill="none" xmlns="http://www.w3.org/2000/svg">
<g clip-path="url(#clip0_210_610)">
<path d="M35.8572 48.8572C46.1534 48.8572 54.5001 40.5106 54.5001 30.2144C54.5001 19.9182 46.1534 11.5715 35.8572 11.5715C25.561 11.5715 17.2144 19.9182 17.2144 30.2144C17.2144 40.5106 25.561 48.8572 35.8572 48.8572Z" fill="#1E3251"/>
<path opacity="0.5" d="M19.4252 21.4006C17.9315 20.8639 16.3214 20.5715 14.6429 20.5715C6.83198 20.5715 0.5 26.9035 0.5 34.7144C0.5 42.5252 6.83198 48.8572 14.6429 48.8572H35.8571C25.561 48.8572 17.2143 40.5105 17.2143 30.2144C17.2143 27.0262 18.0145 24.025 19.4252 21.4006Z" fill="#1E3251"/>
</g>
<defs>
<clipPath id="clip0_210_610">
<rect width="54" height="61.7143" fill="white" transform="translate(0.5)"/>
</clipPath>
</defs>
</svg>
