<svg width="172" height="40" viewBox="0 0 172 40" fill="none" xmlns="http://www.w3.org/2000/svg">
<path d="M39.3145 9.00952H25.3272C24.332 9.00952 23.3906 9.46196 22.7689 10.2391L21.46 11.8752C20.8383 12.6523 19.897 13.1048 18.9017 13.1048H6.55256L3.27637 17.2H17.2637C18.2589 17.2 19.2002 16.7476 19.8219 15.9704L21.1308 14.3343C21.7525 13.5572 22.6939 13.1048 23.6891 13.1048H36.0383L39.3145 9.00952Z" fill="#1E3251"/>
<path d="M37.6763 15.562H23.689C22.6938 15.562 21.7524 16.0145 21.1307 16.7916L19.8219 18.4277C19.2001 19.2048 18.2588 19.6572 17.2636 19.6572H4.91437L1.63818 23.7525H15.6255C16.6207 23.7525 17.562 23.3 18.1838 22.5229L19.4926 20.8868C20.1143 20.1097 21.0557 19.6572 22.0509 19.6572H34.4001L37.6763 15.562Z" fill="#1E3251"/>
<path d="M36.0381 22.1143H22.0508C21.0556 22.1143 20.1143 22.5667 19.4925 23.3438L18.1837 24.9799C17.5619 25.7571 16.6206 26.2095 15.6254 26.2095H3.27619L0 30.3047H13.9873C14.9825 30.3047 15.9238 29.8523 16.5456 29.0752L17.8544 27.4391C18.4762 26.6619 19.4175 26.2095 20.4127 26.2095H32.7619L36.0381 22.1143Z" fill="#1E3251"/>
<path d="M54.3824 11.3274C57.6332 11.3274 60.0437 13.0081 60.0437 16.0377C60.0437 18.028 58.9159 19.3328 57.2573 19.8193C58.8937 20.0404 59.6456 20.8586 59.8004 22.5393L60.1764 27.0285H56.7708L56.4833 23.0701C56.3727 21.7432 55.6429 21.3009 53.8075 21.3009H50.8884V27.0285H47.5049V11.3274H54.3824ZM50.8884 18.4482H53.918C55.6208 18.4482 56.5717 17.6963 56.5717 16.3252C56.5717 14.932 55.6208 14.1801 53.918 14.1801H50.8884V18.4482Z" fill="#1E3251"/>
<path d="M60.8545 21.1684C60.8545 17.4532 63.2428 15.0427 66.8696 15.0427C70.0983 15.0427 72.6193 17.2763 72.5972 21.4116V22.0308H64.3485C64.437 23.7779 65.3658 24.8172 66.8696 24.8172C67.8426 24.8172 68.7051 24.2644 69.081 23.3577L72.4424 23.601C71.7347 25.8787 69.5454 27.294 66.8696 27.294C63.2428 27.294 60.8545 24.8836 60.8545 21.1684ZM64.3707 20.0184H69.2137C69.0368 18.2493 68.0195 17.5195 66.8696 17.5195C65.4543 17.5195 64.5476 18.4704 64.3707 20.0184Z" fill="#1E3251"/>
<path d="M74.8934 15.2416C74.8934 12.6764 76.1539 11.3274 78.9624 11.3274H81.3507V13.8263H79.471C78.7413 13.8263 78.2326 14.357 78.2326 15.2416V15.7945H81.1738V18.2934H78.2326V27.0285H74.8934V18.2934H73.1685V15.7945H74.8934V15.2416Z" fill="#1E3251"/>
<path d="M82.6606 15.3079H85.8451L85.9114 17.652C86.3758 16.0819 87.2604 15.3079 88.7421 15.3079H89.8036V17.8068H88.6978C86.7739 17.8068 86.022 18.6913 86.022 20.5047V27.0284H82.6606V15.3079Z" fill="#1E3251"/>
<path d="M93.394 23.8221C93.394 24.5519 94.0132 25.2374 95.2074 25.1932C96.6669 25.149 97.7063 23.999 97.6842 22.0972V21.8097L95.7381 22.1856C94.4113 22.451 93.394 22.6058 93.394 23.8221ZM89.9663 23.9106C89.9663 21.7212 91.5585 20.9251 94.1238 20.4386L97.64 19.7531V19.7088C97.64 17.9839 96.9102 17.232 95.6054 17.232C94.4776 17.232 93.7479 17.9176 93.5267 19.1118L90.1653 18.9348C90.6076 16.458 92.5758 15.0427 95.6054 15.0427C99.0553 15.0427 101.001 16.7013 101.001 20.1511V27.0287H98.0159L97.9053 25.3922C97.4188 26.4316 96.2025 27.2719 94.1017 27.3162C91.8018 27.3162 89.9663 25.9893 89.9663 23.9106Z" fill="#1E3251"/>
<path d="M110.444 19.7973C110.245 18.382 109.316 17.608 108.144 17.608C106.485 17.608 105.557 18.9127 105.557 21.1684C105.557 23.424 106.485 24.7288 108.144 24.7288C109.382 24.7288 110.289 23.9548 110.488 22.4289L113.938 22.5616C113.628 25.4807 111.262 27.294 108.144 27.294C104.517 27.294 102.129 24.8836 102.129 21.1684C102.129 17.4532 104.517 15.0427 108.144 15.0427C111.174 15.0427 113.562 16.7898 113.872 19.6425L110.444 19.7973Z" fill="#1E3251"/>
<path d="M115.888 12.6543H119.249V15.308H122.323V17.7848H119.249V23.1807C119.249 24.0653 119.691 24.5297 120.532 24.5297H122.345V27.0286H119.824C117.259 27.0286 115.888 25.7681 115.888 23.1807V17.7848H113.986V15.308H115.888V12.6543Z" fill="#1E3251"/>
<path d="M123.567 15.308H126.929V27.0285H123.567V15.308ZM123.523 13.7821V11.3274H126.973V13.7821H123.523Z" fill="#1E3251"/>
<path d="M134.277 27.294C130.651 27.294 128.262 24.8836 128.262 21.1684C128.262 17.4532 130.651 15.0427 134.277 15.0427C137.904 15.0427 140.292 17.4532 140.292 21.1684C140.292 24.8836 137.904 27.294 134.277 27.294ZM131.69 21.1684C131.69 23.424 132.619 24.7288 134.277 24.7288C135.936 24.7288 136.865 23.424 136.865 21.1684C136.865 18.9127 135.936 17.608 134.277 17.608C132.619 17.608 131.69 18.9127 131.69 21.1684Z" fill="#1E3251"/>
<path d="M141.516 15.3081H144.523L144.612 17.1878C145.253 15.6398 146.558 15.0427 148.106 15.0427C150.671 15.0427 152.153 16.7676 152.153 19.4877V27.0287H148.813V20.5934C148.813 18.7358 148.393 17.6964 147.022 17.6964C145.607 17.6964 144.877 18.7358 144.877 20.5934V27.0287H141.516V15.3081Z" fill="#1E3251"/>
<path d="M156.892 23.8221C156.892 24.5519 157.511 25.2374 158.705 25.1932C160.164 25.149 161.204 23.999 161.182 22.0972V21.8097L159.236 22.1856C157.909 22.451 156.892 22.6058 156.892 23.8221ZM153.464 23.9106C153.464 21.7212 155.056 20.9251 157.621 20.4386L161.138 19.7531V19.7088C161.138 17.9839 160.408 17.232 159.103 17.232C157.975 17.232 157.245 17.9176 157.024 19.1118L153.663 18.9348C154.105 16.458 156.073 15.0427 159.103 15.0427C162.553 15.0427 164.499 16.7013 164.499 20.1511V27.0287H161.513L161.403 25.3922C160.916 26.4316 159.7 27.2719 157.599 27.3162C155.299 27.3162 153.464 25.9893 153.464 23.9106Z" fill="#1E3251"/>
<path d="M166.287 11.3274H169.648V23.6229C169.648 24.1979 169.958 24.5296 170.533 24.5296H171.373V27.0285H169.56C167.614 27.0285 166.287 25.8565 166.287 23.7556V11.3274Z" fill="#1E3251"/>
</svg>
