<svg width="152" height="37" viewBox="0 0 152 37" fill="none" xmlns="http://www.w3.org/2000/svg">
<path d="M0 6.77214C0 4.69424 1.68448 3.00977 3.76238 3.00977H11.2871C13.365 3.00977 15.0495 4.69424 15.0495 6.77214V14.1608C15.0497 14.206 15.0497 14.2514 15.0497 14.2969C15.0497 16.3718 16.7294 18.0545 18.8032 18.0593H18.8119H26.3366C28.4145 18.0593 30.099 19.7438 30.099 21.8216V29.3464C30.099 31.4243 28.4145 33.1088 26.3366 33.1088H18.8119C16.734 33.1088 15.0495 31.4243 15.0495 29.3464V21.8216C15.0495 21.8112 15.0496 21.8008 15.0497 21.7903C15.0328 19.7269 13.3549 18.0593 11.2874 18.0593C11.2776 18.0593 11.2679 18.0593 11.2582 18.0593H3.76238C1.68448 18.0593 0 16.3748 0 14.2969L0 6.77214Z" fill="#1E3251"/>
<path fill-rule="evenodd" clip-rule="evenodd" d="M70.847 25.1025C69.7935 25.1025 68.8529 24.8466 68.0252 24.335C67.1975 23.8233 66.5428 23.1235 66.0612 22.2356C65.5797 21.3476 65.3389 20.3393 65.3389 19.2106C65.3389 18.0819 65.5797 17.0811 66.0612 16.2082C66.5428 15.3203 67.1975 14.628 68.0252 14.1314C68.8529 13.6197 69.7935 13.3639 70.847 13.3639C71.6898 13.3639 72.4272 13.5219 73.0593 13.8379C73.6913 14.154 74.203 14.5979 74.5943 15.1698V8.57812H77.4842V24.8316H74.9104L74.5943 23.2288C74.2331 23.7255 73.7515 24.1619 73.1496 24.5381C72.5626 24.9144 71.7951 25.1025 70.847 25.1025ZM71.4565 22.5742C72.3896 22.5742 73.1496 22.2656 73.7365 21.6486C74.3385 21.0165 74.6395 20.2114 74.6395 19.2332C74.6395 18.255 74.3385 17.4573 73.7365 16.8403C73.1496 16.2082 72.3896 15.8922 71.4565 15.8922C70.5385 15.8922 69.7785 16.2007 69.1765 16.8177C68.5745 17.4348 68.2735 18.2324 68.2735 19.2106C68.2735 20.1888 68.5745 20.994 69.1765 21.626C69.7785 22.2581 70.5385 22.5742 71.4565 22.5742Z" fill="#1E3251"/>
<path d="M41.1903 24.0867C42.334 24.7639 43.7035 25.1026 45.2988 25.1026C47.195 25.1026 48.7451 24.6435 49.9491 23.7255C51.1681 22.8075 51.9281 21.5358 52.2291 19.9105H49.0461C48.8505 20.7231 48.4291 21.3627 47.782 21.8293C47.1499 22.2808 46.3071 22.5065 45.2536 22.5065C43.7938 22.5065 42.6501 22.0174 41.8223 21.0392C40.9946 20.0459 40.5808 18.6839 40.5808 16.9532C40.5808 15.2226 40.9946 13.8606 41.8223 12.8673C42.6501 11.874 43.7938 11.3774 45.2536 11.3774C46.3071 11.3774 47.1499 11.6257 47.782 12.1224C48.4291 12.6039 48.8505 13.2736 49.0461 14.1315H52.2291C51.9281 12.4309 51.1681 11.114 49.9491 10.181C48.7451 9.23285 47.195 8.75879 45.2988 8.75879C43.7035 8.75879 42.334 9.10493 41.1903 9.79721C40.0465 10.4895 39.1661 11.4526 38.5491 12.6867C37.932 13.9208 37.6235 15.3429 37.6235 16.9532C37.6235 18.5635 37.932 19.9857 38.5491 21.2198C39.1661 22.4388 40.0465 23.3944 41.1903 24.0867Z" fill="#1E3251"/>
<path fill-rule="evenodd" clip-rule="evenodd" d="M55.8031 24.3574C56.676 24.8541 57.6542 25.1024 58.7378 25.1024C59.8063 25.1024 60.777 24.8541 61.6498 24.3574C62.5227 23.8608 63.2075 23.176 63.7041 22.3032C64.2158 21.4153 64.4716 20.3919 64.4716 19.2331C64.4716 18.0743 64.2158 17.0584 63.7041 16.1856C63.2075 15.2976 62.5227 14.6054 61.6498 14.1087C60.792 13.6121 59.8289 13.3638 58.7603 13.3638C57.6768 13.3638 56.6986 13.6121 55.8257 14.1087C54.9679 14.6054 54.2831 15.2976 53.7714 16.1856C53.2597 17.0584 53.0039 18.0743 53.0039 19.2331C53.0039 20.3919 53.2522 21.4153 53.7489 22.3032C54.2605 23.176 54.9453 23.8608 55.8031 24.3574ZM60.7017 21.7614C60.1449 22.3182 59.4902 22.5966 58.7378 22.5966C57.9853 22.5966 57.3306 22.3182 56.7738 21.7614C56.232 21.1895 55.9611 20.3467 55.9611 19.2331C55.9611 18.1194 56.232 17.2842 56.7738 16.7273C57.3306 16.1555 57.9928 15.8695 58.7603 15.8695C59.4978 15.8695 60.1449 16.1555 60.7017 16.7273C61.2586 17.2842 61.537 18.1194 61.537 19.2331C61.537 20.3467 61.2586 21.1895 60.7017 21.7614Z" fill="#1E3251"/>
<path fill-rule="evenodd" clip-rule="evenodd" d="M81.5101 24.38C82.383 24.8616 83.3838 25.1024 84.5125 25.1024C85.4155 25.1024 86.2206 24.9368 86.928 24.6058C87.6503 24.2747 88.2523 23.8232 88.7339 23.2513C89.2305 22.6644 89.5842 22.0172 89.7949 21.3099H86.8602C86.6646 21.7313 86.3636 22.0774 85.9573 22.3483C85.566 22.6042 85.0769 22.7321 84.4899 22.7321C83.7074 22.7321 83.0377 22.4838 82.4808 21.9871C81.9391 21.4905 81.6381 20.8058 81.5779 19.9329H90.0884C90.1034 19.7372 90.1109 19.5491 90.1109 19.3685C90.126 19.1879 90.1335 19.0149 90.1335 18.8493C90.1335 17.8259 89.8927 16.9004 89.4111 16.0727C88.9446 15.2299 88.2899 14.5677 87.4472 14.0861C86.6044 13.6046 85.6337 13.3638 84.5351 13.3638C83.3612 13.3638 82.3379 13.6196 81.465 14.1313C80.6072 14.6279 79.93 15.3277 79.4333 16.2307C78.9517 17.1337 78.7109 18.1646 78.7109 19.3234C78.7109 20.4671 78.9593 21.4755 79.4559 22.3483C79.9525 23.2212 80.6373 23.8984 81.5101 24.38ZM82.6614 16.321C83.2032 15.9147 83.8278 15.7115 84.5351 15.7115C85.2725 15.7115 85.8896 15.9297 86.3862 16.3661C86.8828 16.8026 87.1537 17.3895 87.1989 18.1269H81.623C81.7735 17.3143 82.1197 16.7123 82.6614 16.321Z" fill="#1E3251"/>
<path d="M96.6959 25.1024C95.5521 25.1024 94.5438 24.8541 93.6709 24.3574C92.798 23.8608 92.1058 23.1685 91.5941 22.2806C91.0967 21.3927 90.8491 20.3768 90.8491 19.2331C90.8491 18.0893 91.0967 17.0735 91.5941 16.1856C92.1058 15.2976 92.798 14.6054 93.6709 14.1087C94.5438 13.6121 95.5521 13.3638 96.6959 13.3638C98.1256 13.3638 99.3295 13.74 100.308 14.4925C101.286 15.2299 101.911 16.2533 102.181 17.5626H99.1339C98.9834 17.0208 98.6824 16.5994 98.2309 16.2984C97.7945 15.9824 97.2753 15.8244 96.6733 15.8244C95.8757 15.8244 95.1984 16.1254 94.6416 16.7273C94.0848 17.3293 93.8063 18.1646 93.8063 19.2331C93.8063 20.3016 94.0848 21.1368 94.6416 21.7388C95.1984 22.3408 95.8757 22.6418 96.6733 22.6418C97.2753 22.6418 97.7945 22.4913 98.2309 22.1903C98.6824 21.8893 98.9834 21.4604 99.1339 20.9036H102.181C101.911 22.1677 101.286 23.1836 100.308 23.9511C99.3295 24.7186 98.1256 25.1024 96.6959 25.1024Z" fill="#1E3251"/>
<path d="M106.235 15.7341L105.965 13.6347H103.391V24.8315H106.281V19.7297C106.281 18.8719 106.416 18.2022 106.687 17.7206C106.973 17.239 107.364 16.9004 107.861 16.7048C108.357 16.5091 108.922 16.4113 109.554 16.4113H110.367V13.3638C109.418 13.3638 108.591 13.582 107.883 14.0184C107.191 14.4398 106.642 15.0117 106.235 15.7341Z" fill="#1E3251"/>
<path fill-rule="evenodd" clip-rule="evenodd" d="M114.846 25.1024C113.883 25.1024 113.093 24.9519 112.476 24.6509C111.859 24.3349 111.4 23.921 111.099 23.4093C110.798 22.8976 110.647 22.3333 110.647 21.7162C110.647 20.6778 111.054 19.8351 111.866 19.1879C112.679 18.5408 113.898 18.2172 115.523 18.2172H118.368V17.9463C118.368 17.1788 118.15 16.6145 117.713 16.2533C117.277 15.8921 116.735 15.7115 116.088 15.7115C115.501 15.7115 114.989 15.8545 114.553 16.1404C114.116 16.4113 113.845 16.8176 113.74 17.3594H110.918C110.994 16.5467 111.264 15.8394 111.731 15.2374C112.213 14.6355 112.83 14.1764 113.582 13.8604C114.335 13.5293 115.177 13.3638 116.11 13.3638C117.706 13.3638 118.962 13.7626 119.88 14.5602C120.798 15.3578 121.257 16.4865 121.257 17.9463V24.8315H118.797L118.526 23.0256C118.195 23.6275 117.728 24.1242 117.126 24.5155C116.539 24.9067 115.779 25.1024 114.846 25.1024ZM115.501 22.845C116.329 22.845 116.968 22.5741 117.42 22.0323C117.886 21.4905 118.18 20.8208 118.3 20.0232H115.84C115.072 20.0232 114.523 20.1661 114.192 20.4521C113.861 20.723 113.695 21.0616 113.695 21.4679C113.695 21.9044 113.861 22.243 114.192 22.4838C114.523 22.7246 114.959 22.845 115.501 22.845Z" fill="#1E3251"/>
<path d="M124.196 9.43595C123.519 10.0078 123.181 10.971 123.181 12.3255V13.6348H121.646V16.0502H123.181V24.8316H126.07V16.0502H130.525V20.9262C130.525 22.386 130.879 23.4019 131.586 23.9738C132.294 24.5456 133.234 24.8316 134.408 24.8316H136.372V22.371H134.973C134.401 22.371 133.994 22.2732 133.754 22.0775C133.528 21.8668 133.415 21.4906 133.415 20.9488V16.0502H136.44V13.6348H133.415V10.6324H130.864L130.525 13.6348H126.07V12.3255C126.07 11.8589 126.175 11.5278 126.386 11.3322C126.597 11.1365 126.95 11.0387 127.447 11.0387H128.237V8.57812H126.996C125.822 8.57812 124.889 8.86407 124.196 9.43595Z" fill="#1E3251"/>
<path d="M137.318 25.6895V28.4435H151.758V25.6895H137.318Z" fill="#1E3251"/>
</svg>
