<svg width="128" height="34" viewBox="0 0 128 34" fill="none" xmlns="http://www.w3.org/2000/svg">
<g clip-path="url(#clip0_131_535)">
<path d="M32.9318 12.4139C33.8739 13.3561 33.8739 14.8838 32.9318 15.826L15.8134 32.9446C14.8712 33.8867 13.3435 33.8867 12.4013 32.9446L1.62867 22.1719C0.686439 21.2294 0.686439 19.7019 1.62867 18.7597L18.7471 1.64122C19.6893 0.699021 21.217 0.699021 22.1592 1.64122L32.9318 12.4139Z" fill="#010101"/>
<path d="M36.9527 15.826C37.8949 14.8838 37.8949 13.3561 36.9527 12.4139L29.0315 4.49277L31.8833 1.64122C32.8254 0.699021 34.3531 0.699021 35.2952 1.64122L46.0678 12.4139C47.01 13.3561 47.01 14.8838 46.0678 15.826L28.9495 32.9446C28.0073 33.8867 26.4797 33.8867 25.5371 32.9446L22.6857 30.0928L36.9527 15.826Z" fill="#010101"/>
<path d="M64.9591 18.4974C65.8683 18.667 66.6158 19.1217 67.2017 19.8615C67.7872 20.6013 68.0803 21.449 68.0803 22.4049C68.0803 23.2678 67.8644 24.0306 67.4329 24.6937C67.0167 25.3411 66.4079 25.8494 65.6065 26.2193C64.8051 26.5893 63.8569 26.7742 62.7628 26.7742H55.8038V10.6367H62.462C63.5565 10.6367 64.4967 10.814 65.2828 11.1685C66.0842 11.523 66.6854 12.0162 67.0859 12.6482C67.5021 13.2801 67.7104 13.9968 67.7104 14.7983C67.7104 15.7385 67.4558 16.5246 66.9472 17.1565C66.4542 17.7884 65.7915 18.2354 64.9591 18.4974ZM59.0404 17.2952H61.9996C62.7704 17.2952 63.3639 17.1257 63.7801 16.7866C64.1959 16.4321 64.4042 15.9311 64.4042 15.2838C64.4042 14.6365 64.1959 14.1355 63.7801 13.781C63.3639 13.4265 62.7704 13.2493 61.9996 13.2493H59.0404V17.2952ZM62.3003 24.1388C63.0865 24.1388 63.6953 23.9538 64.1267 23.5839C64.5739 23.2139 64.7971 22.69 64.7971 22.0116C64.7971 21.3179 64.5659 20.7787 64.1034 20.3933C63.6414 19.9925 63.0169 19.7922 62.2308 19.7922H59.0404V24.1388H62.3003Z" fill="#010101"/>
<path d="M75.4224 26.9824C74.1895 26.9824 73.0797 26.7126 72.0933 26.173C71.1069 25.6181 70.3284 24.84 69.7582 23.8379C69.2033 22.8362 68.9259 21.6802 68.9259 20.3701C68.9259 19.06 69.211 17.904 69.7812 16.9021C70.367 15.9003 71.1608 15.1296 72.1625 14.5901C73.1645 14.0353 74.282 13.7578 75.5149 13.7578C76.7478 13.7578 77.8653 14.0353 78.8673 14.5901C79.869 15.1296 80.6551 15.9003 81.2253 16.9021C81.8112 17.904 82.1039 19.06 82.1039 20.3701C82.1039 21.6802 81.8036 22.8362 81.2024 23.8379C80.6165 24.84 79.8151 25.6181 78.7978 26.173C77.7961 26.7126 76.671 26.9824 75.4224 26.9824ZM75.4224 24.1616C76.0083 24.1616 76.5552 24.0229 77.0638 23.7454C77.5878 23.4527 78.004 23.0212 78.3124 22.451C78.6208 21.8804 78.7748 21.1868 78.7748 20.3701C78.7748 19.1524 78.4511 18.2199 77.8037 17.5726C77.172 16.9098 76.3935 16.5784 75.4687 16.5784C74.5438 16.5784 73.7657 16.9098 73.1336 17.5726C72.5171 18.2199 72.2087 19.1524 72.2087 20.3701C72.2087 21.5877 72.5095 22.5278 73.1107 23.1905C73.7271 23.8379 74.4976 24.1616 75.4224 24.1616Z" fill="#010101"/>
<path d="M86.7895 15.9545C87.2057 15.2764 87.7454 14.7446 88.408 14.3592C89.0864 13.9739 89.8569 13.7812 90.7202 13.7812V17.1799H89.8645C88.8471 17.1799 88.0767 17.4189 87.5527 17.8967C87.0441 18.3745 86.7895 19.2067 86.7895 20.3935V26.7745H83.5529V13.9662H86.7895V15.9545Z" fill="#010101"/>
<path d="M91.1437 20.3242C91.1437 19.0295 91.3979 17.8812 91.9065 16.8794C92.4305 15.8775 93.1394 15.1069 94.0337 14.5674C94.9276 14.0279 95.9217 13.7582 97.0158 13.7582C97.8482 13.7582 98.6419 13.9432 99.3975 14.3131C100.153 14.6676 100.753 15.1454 101.2 15.7465V9.66602H104.483V26.7746H101.2V24.879C100.8 25.5107 100.237 26.0194 99.5129 26.4046C98.7883 26.7902 97.9483 26.9828 96.9929 26.9828C95.914 26.9828 94.9276 26.7054 94.0337 26.1505C93.1394 25.5956 92.4305 24.8171 91.9065 23.8154C91.3979 22.798 91.1437 21.6343 91.1437 20.3242ZM101.224 20.3705C101.224 19.5844 101.069 18.914 100.761 18.3591C100.453 17.7888 100.037 17.3572 99.5129 17.0643C98.989 16.7561 98.4264 16.602 97.8253 16.602C97.2241 16.602 96.6692 16.7484 96.1605 17.0412C95.6518 17.3341 95.2356 17.7656 94.9119 18.336C94.6039 18.8908 94.4495 19.5536 94.4495 20.3242C94.4495 21.0951 94.6039 21.7731 94.9119 22.3589C95.2356 22.9291 95.6518 23.3682 96.1605 23.6767C96.6845 23.9847 97.2394 24.1391 97.8253 24.1391C98.4264 24.1391 98.989 23.9927 99.5129 23.6996C100.037 23.3916 100.453 22.9597 100.761 22.4052C101.069 21.8346 101.224 21.1566 101.224 20.3705Z" fill="#010101"/>
<path d="M118.626 20.0926C118.626 20.555 118.595 20.9712 118.534 21.3412H109.17C109.248 22.266 109.571 22.9903 110.141 23.5142C110.712 24.0386 111.413 24.3003 112.245 24.3003C113.448 24.3003 114.303 23.784 114.812 22.7514H118.303C117.933 23.9843 117.224 25.0016 116.176 25.803C115.128 26.5892 113.84 26.9824 112.314 26.9824C111.082 26.9824 109.972 26.7126 108.985 26.173C108.014 25.6181 107.251 24.84 106.697 23.8379C106.157 22.8362 105.887 21.6802 105.887 20.3701C105.887 19.0446 106.157 17.8808 106.697 16.879C107.236 15.8771 107.991 15.1065 108.962 14.567C109.933 14.0275 111.051 13.7578 112.314 13.7578C113.532 13.7578 114.619 14.0199 115.574 14.5439C116.546 15.0679 117.293 15.8155 117.817 16.7865C118.357 17.7421 118.626 18.8442 118.626 20.0926ZM115.274 19.1678C115.258 18.3355 114.958 17.6728 114.372 17.1795C113.787 16.6709 113.07 16.4166 112.222 16.4166C111.421 16.4166 110.743 16.6632 110.188 17.1564C109.648 17.6342 109.317 18.3047 109.193 19.1678H115.274Z" fill="#010101"/>
<path d="M123.301 15.9545C123.717 15.2764 124.257 14.7446 124.919 14.3592C125.598 13.9739 126.368 13.7812 127.232 13.7812V17.1799H126.376C125.359 17.1799 124.588 17.4189 124.064 17.8967C123.555 18.3745 123.301 19.2067 123.301 20.3935V26.7745H120.064V13.9662H123.301V15.9545Z" fill="#010101"/>
</g>
<defs>
<clipPath id="clip0_131_535">
<rect width="127" height="34" fill="white" transform="translate(0.699341)"/>
</clipPath>
</defs>
</svg>
