<svg width="151" height="34" viewBox="0 0 151 34" fill="none" xmlns="http://www.w3.org/2000/svg">
<g clip-path="url(#clip0_131_525)">
<path fill-rule="evenodd" clip-rule="evenodd" d="M7.10149 9.20779C9.59801 5.84976 13.5958 3.6742 18.1017 3.6742C22.634 3.6742 26.6521 5.87542 29.1456 9.26713C29.0395 9.37628 28.9428 9.48937 28.8554 9.60234C28.3986 10.1938 28.055 10.9557 27.7796 11.7293C27.2252 13.2853 26.8023 15.3178 26.4107 17.2211L26.376 17.3922C25.9853 19.292 25.6222 21.0588 25.1831 22.3704C24.9859 22.9596 24.7988 23.3761 24.6329 23.643C24.4598 23.374 24.2634 22.9524 24.0556 22.3547C23.586 21.0054 23.1911 19.1703 22.7724 17.2107L22.7588 17.1466C22.3565 15.2644 21.9297 13.2673 21.3976 11.7386C21.1302 10.9707 20.8022 10.2165 20.3732 9.6305C19.9521 9.05541 19.2513 8.40638 18.2262 8.40638C17.2076 8.40638 16.5035 9.04837 16.0764 9.61701C15.6391 10.1992 15.2981 10.9503 15.0173 11.7186C14.4517 13.2657 13.9893 15.2894 13.5589 17.1953L13.5145 17.3922C13.0883 19.2802 12.6899 21.0452 12.2377 22.3593C12.0651 22.8612 11.9022 23.2429 11.7547 23.5157C11.6106 23.2442 11.4518 22.865 11.2839 22.3674C10.85 21.0813 10.47 19.3656 10.0618 17.5229L9.99035 17.2004C9.56742 15.2934 9.10861 13.266 8.53496 11.7141C8.24994 10.9429 7.90133 10.188 7.45019 9.6031C7.34804 9.47071 7.23194 9.33632 7.10149 9.20779ZM5.59053 11.7862C5.70943 12.021 5.83521 12.312 5.96527 12.6639C6.4618 14.0072 6.88248 15.8402 7.31568 17.7936L7.39996 18.1742C7.79439 19.9566 8.20468 21.8106 8.68793 23.2429C8.94495 24.0048 9.25534 24.751 9.65455 25.3309C10.0321 25.8794 10.7093 26.5878 11.7507 26.5878C12.7891 26.5878 13.4679 25.8828 13.848 25.3368C14.2506 24.7582 14.5661 24.0129 14.8283 23.2506C15.331 21.7898 15.759 19.8923 16.1686 18.0764L16.2313 17.7987C16.6726 15.8442 17.0974 14.0075 17.5904 12.6593C17.8187 12.0347 18.0325 11.5995 18.2186 11.3296C18.395 11.5972 18.5965 12.0254 18.8102 12.6393C19.2799 13.9886 19.6745 15.8238 20.0933 17.7833L20.107 17.8475C20.5092 19.7297 20.936 21.7268 21.4681 23.2552C21.7354 24.0235 22.0635 24.7777 22.4925 25.3635C22.9136 25.9387 23.6144 26.5878 24.6393 26.5878C25.6697 26.5878 26.3679 25.9328 26.784 25.3525C27.2066 24.7637 27.5243 24.0069 27.7809 23.24C28.2743 21.7668 28.6667 19.8554 29.0404 18.037L29.0943 17.7729C29.4968 15.8158 29.8833 13.9879 30.3605 12.6486C30.464 12.3572 30.5658 12.1088 30.663 11.9002C31.3943 13.5762 31.7998 15.427 31.7998 17.3724C31.7998 24.9376 25.6671 31.0707 18.1017 31.0707C10.5363 31.0707 4.40344 24.9376 4.40344 17.3724C4.40344 15.3828 4.82764 13.4922 5.59053 11.7862ZM18.1017 0.93457C9.0233 0.93457 1.66382 8.29405 1.66382 17.3724C1.66382 26.4508 9.0233 33.8102 18.1017 33.8102C27.1803 33.8102 34.5393 26.4508 34.5393 17.3724C34.5393 8.29405 27.1803 0.93457 18.1017 0.93457ZM18.4148 11.1002C18.4148 11.1002 18.4117 11.1031 18.4052 11.1069C18.4116 11.1018 18.4148 11.1002 18.4148 11.1002ZM18.0362 11.1021C18.0298 11.0982 18.0267 11.0952 18.0267 11.0952C18.0267 11.0952 18.0299 11.0968 18.0362 11.1021ZM24.431 23.903C24.431 23.903 24.434 23.9 24.4399 23.8962C24.434 23.9013 24.431 23.903 24.431 23.903ZM24.8293 23.892C24.8357 23.8958 24.8391 23.8988 24.8391 23.8988C24.8391 23.8988 24.8357 23.8971 24.8293 23.892ZM11.47 23.9276C11.47 23.9276 11.4739 23.9234 11.4818 23.9178C11.474 23.9251 11.47 23.9276 11.47 23.9276ZM12.0248 23.9204C12.0326 23.9259 12.0365 23.9301 12.0365 23.9301C12.0365 23.9301 12.0325 23.928 12.0248 23.9204Z" fill="#010101"/>
<path d="M43.6158 27.1038L39.6296 13.4688H43.1212L45.4853 23.2826L48.2341 13.4688H52.1376L54.8869 23.2826L57.2785 13.4688H60.7697L56.7563 27.1038H53.1001L50.1858 16.9051L47.272 27.1038H43.6158Z" fill="#010101"/>
<path d="M65.8929 27.4337C64.72 27.4337 63.7579 27.2501 63.0066 26.8835C62.2553 26.4988 61.6962 25.9948 61.3297 25.3717C60.9632 24.7485 60.78 24.0613 60.78 23.3101C60.78 22.0455 61.2746 21.0192 62.2643 20.2311C63.2539 19.4431 64.7386 19.049 66.718 19.049H70.1816V18.7191C70.1816 17.7845 69.9156 17.0972 69.3845 16.6574C68.853 16.2175 68.1929 15.9976 67.4052 15.9976C66.6904 15.9976 66.0672 16.1717 65.5357 16.5199C65.0042 16.8498 64.6741 17.3446 64.546 18.0044H61.1096C61.2016 17.0148 61.5312 16.1534 62.0992 15.4203C62.6859 14.6873 63.4372 14.1283 64.3534 13.7435C65.2701 13.3403 66.2963 13.1387 67.4323 13.1387C69.3752 13.1387 70.9053 13.6243 72.0234 14.5956C73.1412 15.5669 73.7003 16.9415 73.7003 18.7191V27.1037H70.7038L70.3741 24.9046C69.9707 25.6377 69.4027 26.2421 68.6697 26.719C67.9549 27.1953 67.0293 27.4337 65.8929 27.4337ZM66.6904 24.6845C67.6983 24.6845 68.4771 24.3544 69.0269 23.6948C69.5949 23.0352 69.9525 22.2194 70.0993 21.2482H67.1027C66.1678 21.2482 65.4992 21.4224 65.0958 21.7705C64.6928 22.1004 64.4909 22.513 64.4909 23.0076C64.4909 23.5391 64.6928 23.9515 65.0958 24.2446C65.4992 24.5377 66.0303 24.6845 66.6904 24.6845Z" fill="#010101"/>
<path d="M79.2401 27.1038L74.2371 13.4688H77.9204L81.3845 23.7778L84.8481 13.4688H88.5319L83.5013 27.1038H79.2401Z" fill="#010101"/>
<path d="M95.6055 27.4337C94.2311 27.4337 93.0123 27.1402 91.9493 26.5539C90.8866 25.9673 90.0527 25.1426 89.4477 24.0796C88.8428 23.0169 88.5408 21.7889 88.5408 20.396C88.5408 18.9849 88.8339 17.7295 89.4202 16.6299C90.0251 15.5303 90.8497 14.6781 91.8945 14.0733C92.9572 13.4502 94.2035 13.1387 95.633 13.1387C96.971 13.1387 98.1532 13.4319 99.1794 14.0183C100.205 14.6048 101.003 15.4112 101.571 16.4375C102.158 17.4454 102.451 18.5725 102.451 19.8188C102.451 20.0204 102.442 20.2311 102.424 20.451C102.424 20.671 102.414 20.9 102.396 21.1383H92.032C92.1054 22.2012 92.4719 23.0352 93.1315 23.6401C93.8094 24.2446 94.6251 24.547 95.5783 24.547C96.2927 24.547 96.8887 24.3914 97.3651 24.0796C97.8597 23.75 98.2262 23.3283 98.4646 22.815H102.039C101.782 23.6766 101.351 24.4647 100.746 25.1795C100.16 25.8756 99.4267 26.4254 98.5469 26.8288C97.6858 27.2318 96.705 27.4337 95.6055 27.4337ZM95.633 15.9976C94.7719 15.9976 94.0113 16.2451 93.3513 16.7398C92.6916 17.2164 92.27 17.9494 92.0867 18.9391H98.8769C98.8218 18.041 98.4922 17.3263 97.8873 16.7948C97.2823 16.2634 96.5311 15.9976 95.633 15.9976Z" fill="#010101"/>
<path d="M104.311 27.1045V7.31152H107.829V27.1045H104.311Z" fill="#010101"/>
<path d="M116.95 27.4337C115.575 27.4337 114.356 27.1402 113.293 26.5539C112.231 25.9673 111.397 25.1426 110.792 24.0796C110.187 23.0169 109.885 21.7889 109.885 20.396C109.885 18.9849 110.178 17.7295 110.764 16.6299C111.369 15.5303 112.194 14.6781 113.239 14.0733C114.302 13.4502 115.548 13.1387 116.977 13.1387C118.315 13.1387 119.497 13.4319 120.524 14.0183C121.55 14.6048 122.347 15.4112 122.915 16.4375C123.501 17.4454 123.795 18.5725 123.795 19.8188C123.795 20.0204 123.786 20.2311 123.767 20.451C123.767 20.671 123.758 20.9 123.74 21.1383H113.376C113.45 22.2012 113.816 23.0352 114.476 23.6401C115.154 24.2446 115.969 24.547 116.922 24.547C117.637 24.547 118.233 24.3914 118.709 24.0796C119.204 23.75 119.57 23.3283 119.809 22.815H123.383C123.126 23.6766 122.695 24.4647 122.091 25.1795C121.504 25.8756 120.771 26.4254 119.891 26.8288C119.03 27.2318 118.05 27.4337 116.95 27.4337ZM116.977 15.9976C116.116 15.9976 115.355 16.2451 114.695 16.7398C114.036 17.2164 113.614 17.9494 113.431 18.9391H120.221C120.166 18.041 119.836 17.3263 119.231 16.7948C118.626 16.2634 117.875 15.9976 116.977 15.9976Z" fill="#010101"/>
<path d="M131.291 27.4337C130.082 27.4337 129.019 27.2411 128.102 26.8564C127.186 26.453 126.453 25.9032 125.903 25.2067C125.353 24.5106 125.024 23.7041 124.913 22.7879H128.46C128.569 23.319 128.863 23.7775 129.339 24.1623C129.834 24.5288 130.467 24.7121 131.236 24.7121C132.006 24.7121 132.565 24.5564 132.913 24.2446C133.279 23.9332 133.463 23.5756 133.463 23.1726C133.463 22.586 133.206 22.1919 132.693 21.9905C132.18 21.7705 131.465 21.5598 130.549 21.3582C129.963 21.2299 129.367 21.0741 128.762 20.8909C128.157 20.7076 127.598 20.4785 127.085 20.2036C126.59 19.9104 126.187 19.5439 125.875 19.104C125.564 18.6458 125.408 18.0869 125.408 17.4271C125.408 16.2175 125.885 15.2004 126.838 14.3757C127.809 13.551 129.165 13.1387 130.906 13.1387C132.519 13.1387 133.802 13.5143 134.755 14.2657C135.726 15.0172 136.304 16.0526 136.487 17.3721H133.161C132.959 16.3642 132.198 15.8602 130.879 15.8602C130.219 15.8602 129.706 15.9885 129.339 16.2451C128.991 16.5016 128.817 16.8223 128.817 17.2072C128.817 17.6104 129.083 17.9311 129.614 18.1694C130.146 18.4076 130.851 18.6275 131.731 18.8291C132.684 19.049 133.554 19.2964 134.342 19.5714C135.149 19.8279 135.79 20.222 136.267 20.7534C136.743 21.2666 136.981 22.0088 136.981 22.98C137 23.8233 136.78 24.5835 136.322 25.2618C135.864 25.9397 135.204 26.4712 134.342 26.8564C133.481 27.2411 132.464 27.4337 131.291 27.4337Z" fill="#010101"/>
<path d="M144.634 27.4337C143.424 27.4337 142.361 27.2411 141.445 26.8564C140.529 26.453 139.795 25.9032 139.246 25.2067C138.696 24.5106 138.366 23.7041 138.256 22.7879H141.802C141.912 23.319 142.205 23.7775 142.682 24.1623C143.177 24.5288 143.809 24.7121 144.579 24.7121C145.348 24.7121 145.907 24.5564 146.256 24.2446C146.622 23.9332 146.805 23.5756 146.805 23.1726C146.805 22.586 146.549 22.1919 146.036 21.9905C145.523 21.7705 144.808 21.5598 143.892 21.3582C143.305 21.2299 142.709 21.0741 142.104 20.8909C141.5 20.7076 140.941 20.4785 140.428 20.2036C139.933 19.9104 139.53 19.5439 139.218 19.104C138.906 18.6458 138.751 18.0869 138.751 17.4271C138.751 16.2175 139.227 15.2004 140.18 14.3757C141.152 13.551 142.508 13.1387 144.249 13.1387C145.862 13.1387 147.144 13.5143 148.098 14.2657C149.069 15.0172 149.646 16.0526 149.829 17.3721H146.503C146.301 16.3642 145.541 15.8602 144.221 15.8602C143.562 15.8602 143.048 15.9885 142.682 16.2451C142.333 16.5016 142.16 16.8223 142.16 17.2072C142.16 17.6104 142.425 17.9311 142.957 18.1694C143.488 18.4076 144.194 18.6275 145.073 18.8291C146.027 19.049 146.897 19.2964 147.685 19.5714C148.492 19.8279 149.133 20.222 149.609 20.7534C150.086 21.2666 150.324 22.0088 150.324 22.98C150.342 23.8233 150.123 24.5835 149.665 25.2618C149.206 25.9397 148.546 26.4712 147.685 26.8564C146.824 27.2411 145.806 27.4337 144.634 27.4337Z" fill="#010101"/>
</g>
<defs>
<clipPath id="clip0_131_525">
<rect width="150" height="34" fill="white" transform="translate(0.799561)"/>
</clipPath>
</defs>
</svg>
