<svg width="219" height="48" viewBox="0 0 219 48" fill="none" xmlns="http://www.w3.org/2000/svg">
<path d="M66.638 35V12.6H80.59V16.088H70.51V22.008H79.79V25.528H70.51V35H66.638ZM81.971 35V19.192H85.587V21.016H86.131C86.3657 20.3547 86.7603 19.8747 87.315 19.576C87.8697 19.2773 88.531 19.128 89.299 19.128H91.219V22.392H89.235C88.1683 22.392 87.3043 22.68 86.643 23.256C85.9817 23.8107 85.651 24.6747 85.651 25.848V35H81.971ZM99.4765 35.448C97.8978 35.448 96.4792 35.128 95.2205 34.488C93.9832 33.8267 93.0018 32.8987 92.2765 31.704C91.5725 30.488 91.2205 29.0373 91.2205 27.352V26.84C91.2205 25.1547 91.5725 23.704 92.2765 22.488C93.0018 21.272 93.9832 20.344 95.2205 19.704C96.4792 19.064 97.8978 18.744 99.4765 18.744C101.055 18.744 102.463 19.064 103.701 19.704C104.938 20.344 105.909 21.272 106.613 22.488C107.338 23.704 107.701 25.1547 107.701 26.84V27.352C107.701 29.0373 107.338 30.488 106.613 31.704C105.909 32.8987 104.938 33.8267 103.701 34.488C102.463 35.128 101.055 35.448 99.4765 35.448ZM99.4765 32.184C100.821 32.184 101.919 31.7573 102.773 30.904C103.626 30.0293 104.053 28.8133 104.053 27.256V26.936C104.053 25.3787 103.626 24.1733 102.773 23.32C101.919 22.4453 100.821 22.008 99.4765 22.008C98.1325 22.008 97.0338 22.4453 96.1805 23.32C95.3272 24.1733 94.9005 25.3787 94.9005 26.936V27.256C94.9005 28.8133 95.3272 30.0293 96.1805 30.904C97.0338 31.7573 98.1325 32.184 99.4765 32.184ZM116.158 35.448C114.878 35.448 113.683 35.1387 112.574 34.52C111.464 33.88 110.579 32.952 109.918 31.736C109.256 30.52 108.926 29.0587 108.926 27.352V26.84C108.926 25.1333 109.256 23.672 109.918 22.456C110.579 21.24 111.454 20.3227 112.542 19.704C113.651 19.064 114.856 18.744 116.158 18.744C117.139 18.744 117.971 18.8613 118.654 19.096C119.336 19.3307 119.88 19.6293 120.286 19.992C120.712 20.3547 121.043 20.7493 121.278 21.176H121.822V12.6H125.47V35H121.886V32.92H121.342C120.958 33.56 120.371 34.1467 119.582 34.68C118.792 35.192 117.651 35.448 116.158 35.448ZM117.246 32.248C118.568 32.248 119.667 31.8213 120.542 30.968C121.416 30.0933 121.854 28.856 121.854 27.256V26.936C121.854 25.3147 121.416 24.0773 120.542 23.224C119.688 22.3707 118.59 21.944 117.246 21.944C115.923 21.944 114.814 22.3707 113.918 23.224C113.043 24.0773 112.606 25.3147 112.606 26.936V27.256C112.606 28.856 113.043 30.0933 113.918 30.968C114.814 31.8213 115.923 32.248 117.246 32.248ZM135.699 35.448C134.12 35.448 132.702 35.128 131.443 34.488C130.206 33.8267 129.224 32.8987 128.499 31.704C127.795 30.488 127.443 29.0373 127.443 27.352V26.84C127.443 25.1547 127.795 23.704 128.499 22.488C129.224 21.272 130.206 20.344 131.443 19.704C132.702 19.064 134.12 18.744 135.699 18.744C137.278 18.744 138.686 19.064 139.923 19.704C141.16 20.344 142.131 21.272 142.835 22.488C143.56 23.704 143.923 25.1547 143.923 26.84V27.352C143.923 29.0373 143.56 30.488 142.835 31.704C142.131 32.8987 141.16 33.8267 139.923 34.488C138.686 35.128 137.278 35.448 135.699 35.448ZM135.699 32.184C137.043 32.184 138.142 31.7573 138.995 30.904C139.848 30.0293 140.275 28.8133 140.275 27.256V26.936C140.275 25.3787 139.848 24.1733 138.995 23.32C138.142 22.4453 137.043 22.008 135.699 22.008C134.355 22.008 133.256 22.4453 132.403 23.32C131.55 24.1733 131.123 25.3787 131.123 26.936V27.256C131.123 28.8133 131.55 30.0293 132.403 30.904C133.256 31.7573 134.355 32.184 135.699 32.184ZM145.052 35V31.608H148.06V15.992H145.052V12.6H156.508C157.852 12.6 159.025 12.8347 160.028 13.304C161.052 13.752 161.841 14.4027 162.396 15.256C162.972 16.088 163.26 17.0907 163.26 18.264V18.552C163.26 19.576 163.068 20.4187 162.684 21.08C162.3 21.7413 161.841 22.2533 161.308 22.616C160.775 22.9787 160.263 23.2347 159.772 23.384V23.928C160.263 24.056 160.785 24.3013 161.34 24.664C161.916 25.0053 162.396 25.5173 162.78 26.2C163.185 26.8613 163.388 27.7253 163.388 28.792V29.112C163.388 30.328 163.089 31.384 162.492 32.28C161.916 33.1547 161.116 33.8267 160.092 34.296C159.089 34.7653 157.927 35 156.604 35H145.052ZM151.9 31.512H156.156C157.18 31.512 157.991 31.2667 158.588 30.776C159.207 30.264 159.516 29.5493 159.516 28.632V28.344C159.516 27.4267 159.217 26.7227 158.62 26.232C158.023 25.72 157.201 25.464 156.156 25.464H151.9V31.512ZM151.9 21.976H156.124C157.105 21.976 157.895 21.7307 158.492 21.24C159.111 20.7493 159.42 20.0667 159.42 19.192V18.872C159.42 17.9973 159.111 17.3147 158.492 16.824C157.895 16.3333 157.105 16.088 156.124 16.088H151.9V21.976ZM172.703 35.448C171.124 35.448 169.705 35.128 168.447 34.488C167.209 33.8267 166.228 32.8987 165.503 31.704C164.799 30.488 164.447 29.0373 164.447 27.352V26.84C164.447 25.1547 164.799 23.704 165.503 22.488C166.228 21.272 167.209 20.344 168.447 19.704C169.705 19.064 171.124 18.744 172.703 18.744C174.281 18.744 175.689 19.064 176.927 19.704C178.164 20.344 179.135 21.272 179.839 22.488C180.564 23.704 180.927 25.1547 180.927 26.84V27.352C180.927 29.0373 180.564 30.488 179.839 31.704C179.135 32.8987 178.164 33.8267 176.927 34.488C175.689 35.128 174.281 35.448 172.703 35.448ZM172.703 32.184C174.047 32.184 175.145 31.7573 175.999 30.904C176.852 30.0293 177.279 28.8133 177.279 27.256V26.936C177.279 25.3787 176.852 24.1733 175.999 23.32C175.145 22.4453 174.047 22.008 172.703 22.008C171.359 22.008 170.26 22.4453 169.407 23.32C168.553 24.1733 168.127 25.3787 168.127 26.936V27.256C168.127 28.8133 168.553 30.0293 169.407 30.904C170.26 31.7573 171.359 32.184 172.703 32.184ZM188.404 35C187.38 35 186.559 34.7013 185.94 34.104C185.343 33.4853 185.044 32.6533 185.044 31.608V22.232H180.916V19.192H185.044V14.104H188.724V19.192H193.268V22.232H188.724V31C188.724 31.64 189.023 31.96 189.62 31.96H192.788V35H188.404ZM201.622 35.448C199.574 35.448 197.888 35 196.566 34.104C195.243 33.208 194.443 31.896 194.166 30.168L197.558 29.304C197.707 30.1147 197.974 30.7547 198.358 31.224C198.742 31.6933 199.211 32.024 199.766 32.216C200.342 32.408 200.96 32.504 201.622 32.504C202.624 32.504 203.371 32.3227 203.862 31.96C204.374 31.5973 204.63 31.1387 204.63 30.584C204.63 30.008 204.384 29.5813 203.894 29.304C203.424 29.0267 202.699 28.792 201.718 28.6L200.726 28.44C199.638 28.2267 198.646 27.9387 197.75 27.576C196.854 27.192 196.128 26.68 195.574 26.04C195.04 25.3787 194.774 24.5467 194.774 23.544C194.774 22.008 195.339 20.824 196.47 19.992C197.622 19.16 199.126 18.744 200.982 18.744C202.752 18.744 204.214 19.1387 205.366 19.928C206.518 20.7173 207.264 21.7733 207.606 23.096L204.214 24.12C204.043 23.224 203.67 22.5947 203.094 22.232C202.518 21.848 201.814 21.656 200.982 21.656C200.128 21.656 199.467 21.8053 198.998 22.104C198.55 22.4027 198.326 22.8293 198.326 23.384C198.326 23.9387 198.56 24.3547 199.03 24.632C199.499 24.9093 200.128 25.112 200.918 25.24L201.91 25.432C203.083 25.6453 204.139 25.9227 205.078 26.264C206.038 26.6053 206.795 27.096 207.35 27.736C207.904 28.376 208.182 29.24 208.182 30.328C208.182 31.9707 207.584 33.24 206.39 34.136C205.216 35.0107 203.627 35.448 201.622 35.448Z" fill="#393939"/>
<path d="M40.8413 20.6608L42.3093 18.0892L47.5816 9.04451L46.29 9.04542L42.351 9.0406L38.0066 16.5182L21.7319 16.502L14.5264 28.8245L9.24632 37.8673L10.538 37.8664L13.0071 37.8611L13.1698 37.9008L14.4615 37.9L18.804 30.43L29.6622 30.4293L27.2662 34.568L48.7794 34.59L56.8837 20.6851L40.8413 20.6608ZM45.6842 30.8626L34.9189 30.8536L35.7638 29.3879L37.5811 26.2767L22.0229 26.257L25.2851 20.666L35.3629 20.6937L33.2061 24.4039L49.4577 24.4144L45.6842 30.8626Z" fill="#008735"/>
</svg>
