<svg width="195" height="42" viewBox="0 0 195 42" fill="none" xmlns="http://www.w3.org/2000/svg">
<path d="M17.3333 3.4668V14.1791C17.3333 16.5422 14.436 17.68 12.8281 15.9483L6.06667 8.6668M34.6667 20.8001H23.9543C21.5913 20.8001 20.4535 17.9028 22.1852 16.2949L29.4667 9.53346M17.3333 38.1335V27.4211C17.3333 25.0581 20.2307 23.9203 21.8386 25.652L28.6 32.9335M0 20.8001H10.7123C13.0754 20.8001 14.2132 23.6975 12.4815 25.3054L5.2 32.0668" stroke="#1E3251" stroke-width="3.46667"/>
<path d="M49.0645 28.9983C44.6185 28.9983 41.6935 27.0327 41.5999 23.3355H45.7651C45.9523 25.0203 47.0521 25.7223 49.0411 25.7223C50.3983 25.7223 51.7321 25.2309 51.7321 23.9673C51.7321 22.6335 50.3749 22.3527 48.0817 21.7911C45.1801 21.1125 42.1147 20.2233 42.1147 16.7133C42.1147 13.1331 45.0163 11.5653 48.7603 11.5653C52.3873 11.5653 55.1953 13.2033 55.3591 16.7133H51.3109C51.1471 15.4263 50.1643 14.7009 48.6199 14.7009C47.1691 14.7009 46.2097 15.3327 46.2097 16.2687C46.2097 17.4387 47.4967 17.7195 50.0005 18.2811C53.1127 19.0065 55.9207 19.9659 55.9207 23.5461C55.9207 27.0561 52.9255 28.9983 49.0645 28.9983Z" fill="#1E3251"/>
<path d="M63.3446 26.2604C65.006 26.2604 65.8952 24.8096 65.8952 22.6334C65.8952 20.4572 65.006 18.983 63.3446 18.983C61.6832 18.983 60.8174 20.4572 60.8174 22.6334C60.8174 24.8096 61.6832 26.2604 63.3446 26.2604ZM63.368 28.9748C59.5304 28.9748 56.9564 26.237 56.9564 22.6334C56.9564 19.0298 59.5304 16.292 63.368 16.292C67.229 16.292 69.7562 19.0298 69.7562 22.6334C69.7562 26.237 67.229 28.9748 63.368 28.9748Z" fill="#1E3251"/>
<path d="M71.0684 28.6004V11.8694H74.9294V28.6004H71.0684Z" fill="#1E3251"/>
<path d="M80.2912 28.9046C77.9044 28.9046 76.2196 27.641 76.2196 25.2776C76.2196 22.6334 78.3256 21.8144 80.806 21.4868C83.0524 21.206 83.848 20.972 83.848 20.153C83.848 19.3808 83.3332 18.866 82.1632 18.866C80.923 18.866 80.338 19.4042 80.2444 20.4104H76.7344C76.8046 18.1874 78.4894 16.292 82.1398 16.292C83.965 16.292 85.369 16.6898 86.2582 17.4152C87.1705 18.1874 87.5917 19.1936 87.5917 20.6912V25.3946C87.5917 26.1668 87.8023 26.354 88.3873 26.2604H88.4575V28.4834C88.1533 28.6238 87.5683 28.811 86.7961 28.811C85.1584 28.811 84.316 28.3196 84.0352 27.1964H84.0118C83.3098 28.1792 82.2334 28.9046 80.2912 28.9046ZM81.5314 26.471C82.9588 26.471 83.9416 25.6052 83.9416 24.3182V22.8908C83.4502 23.1716 82.7482 23.3588 81.976 23.5226C80.5018 23.8502 79.8934 24.2246 79.8934 25.1372C79.8934 26.0732 80.5954 26.471 81.5314 26.471Z" fill="#1E3251"/>
<path d="M89.4419 28.6004V16.6196H93.3055L93.0923 18.4916H93.1625C94.0049 17.0642 94.9877 16.4324 96.4385 16.4324C96.7895 16.4324 97.0235 16.4558 97.1873 16.526V19.802H97.0937C94.7537 19.4744 93.2561 20.621 93.2561 23.2184V28.6004H89.4419Z" fill="#1E3251"/>
<path d="M98.3989 28.6004V16.6196H102.213V28.6004H98.3989Z" fill="#1E3251"/>
<path d="M109.144 28.9749C105.634 28.9749 103.434 27.3603 103.317 24.7161H106.921C107.061 25.9095 107.857 26.4945 109.121 26.4945C110.267 26.4945 110.993 26.0733 110.993 25.3011C110.993 24.2247 109.542 24.1077 107.951 23.8269C105.868 23.4759 103.645 22.9143 103.645 20.1063C103.645 17.5791 105.985 16.2687 108.816 16.2687C112.209 16.2687 114.035 17.7429 114.222 20.1063H110.712C110.571 19.0299 109.846 18.7023 108.793 18.7023C107.857 18.7023 107.132 19.0533 107.132 19.8021C107.132 20.6445 108.489 20.7615 110.01 21.0423C112.116 21.3933 114.596 21.9315 114.596 24.9969C114.596 27.6177 112.28 28.9749 109.144 28.9749Z" fill="#1E3251"/>
<path d="M119.702 28.6004V11.8694H132.385V15.2858H123.844V18.281H131.168V21.5102H123.844V25.0904H132.525V28.6004H119.702Z" fill="#1E3251"/>
<path d="M134.161 28.6005V16.6197H138.051L137.835 18.2577H137.905C138.794 16.9707 139.941 16.2687 141.602 16.2687C144.223 16.2687 145.768 18.1407 145.768 20.8083V28.6005H141.953V21.5805C141.953 20.3169 141.322 19.4511 140.081 19.4511C138.818 19.4511 137.975 20.5041 137.975 21.9783V28.6005H134.161Z" fill="#1E3251"/>
<path d="M153.357 28.9515C149.403 28.9515 146.969 26.2137 146.969 22.5867C146.969 19.0065 149.473 16.2687 153.123 16.2687C154.831 16.2687 156.189 16.8303 157.218 17.7663C158.646 19.0767 159.348 21.1593 159.324 23.5929H150.713C150.947 25.2075 151.836 26.2137 153.404 26.2137C154.41 26.2137 155.065 25.7691 155.393 25.0203H159.114C158.856 26.0967 158.154 27.1263 157.101 27.8517C156.095 28.5537 154.878 28.9515 153.357 28.9515ZM150.736 21.3231H155.463C155.323 19.8957 154.434 18.9831 153.193 18.9831C151.743 18.9831 150.994 19.8957 150.736 21.3231Z" fill="#1E3251"/>
<path d="M160.6 28.6004V16.6196H164.466L164.251 18.4916H164.321C165.163 17.0642 166.146 16.4324 167.597 16.4324C167.948 16.4324 168.182 16.4558 168.346 16.526V19.802H168.252C165.912 19.4744 164.414 20.621 164.414 23.2184V28.6004H160.6Z" fill="#1E3251"/>
<path d="M174.899 32.7423C171.6 32.7423 169.423 31.3851 169.049 28.8813H172.746C172.957 29.5131 173.589 30.0513 174.852 30.0513C176.467 30.0513 177.145 29.2089 177.145 27.7581V26.5647H177.052C176.35 27.3603 175.437 27.9453 173.986 27.9453C171.295 27.9453 168.791 25.9329 168.791 22.2591C168.791 18.7491 170.851 16.2687 173.823 16.2687C175.414 16.2687 176.49 16.9005 177.192 17.9067H177.239L177.025 16.6197H180.889V27.4305C180.889 29.2323 180.257 30.5427 179.298 31.4085C178.245 32.3445 176.677 32.7423 174.899 32.7423ZM174.876 25.1139C176.537 25.1139 177.309 23.8035 177.309 22.1187C177.309 20.5041 176.467 19.1469 174.876 19.1469C173.448 19.1469 172.512 20.3169 172.512 22.1421C172.512 23.9439 173.448 25.1139 174.876 25.1139Z" fill="#1E3251"/>
<path d="M183.119 32.555V29.5832H184.43C185.553 29.5832 185.998 29.1386 185.998 28.3196C185.998 27.8048 185.764 27.1028 185.272 25.8392L181.739 16.6196H185.764L187.378 21.7208C187.753 22.8908 188.127 24.482 188.127 24.482H188.174C188.174 24.482 188.501 22.8908 188.876 21.7208L190.444 16.6196H194.258L190.116 28.7642C189.157 31.5722 188.01 32.555 185.6 32.555H183.119Z" fill="#1E3251"/>
<path d="M100.306 14.9582C99.109 14.9582 98.1392 13.9885 98.1392 12.7924C98.1392 11.5962 99.109 10.6265 100.306 10.6265C101.502 10.6265 102.473 11.5962 102.473 12.7924C102.473 13.9885 101.502 14.9582 100.306 14.9582Z" fill="#1E3251"/>
</svg>
