<svg width="105" height="34" viewBox="0 0 105 34" fill="none" xmlns="http://www.w3.org/2000/svg">
<g clip-path="url(#clip0_131_544)">
<path d="M16.2551 1.95996H21.2875L15.8036 25.0439H6.9531L1.46924 1.95996H6.50194L10.5977 20.9702H12.1593L16.2551 1.95996Z" fill="#010101"/>
<path d="M26.0864 18.4921C26.1095 19.5332 26.3871 20.2914 26.9193 20.7666C27.4745 21.2192 28.2613 21.4455 29.2796 21.4455C31.4313 21.4455 33.3519 21.3776 35.041 21.2419L36.0129 21.14L36.0824 24.5009C33.4214 25.1345 31.0147 25.4514 28.863 25.4514C26.2485 25.4514 24.3509 24.7724 23.171 23.4144C21.9907 22.0566 21.4009 19.85 21.4009 16.7948C21.4009 10.707 23.9577 7.66309 29.0711 7.66309C34.1153 7.66309 36.6376 10.2204 36.6376 15.3351L36.2905 18.4921H26.0864ZM32.0561 15.0296C32.0561 13.6717 31.8364 12.7325 31.3968 12.212C30.9571 11.6688 30.1819 11.3972 29.0711 11.3972C27.9837 11.3972 27.2084 11.6801 26.7457 12.2459C26.3061 12.7891 26.0749 13.7169 26.0515 15.0296H32.0561Z" fill="#010101"/>
<path d="M39.2661 25.0439V8.07045H43.8822V9.86964C45.8258 8.7381 47.677 8.00255 49.4355 7.66309V12.2459C47.561 12.6307 45.953 13.0267 44.611 13.4341L43.9168 13.6717V25.0439H39.2661Z" fill="#010101"/>
<path d="M61.1 11.9401H56.831V18.8992C56.831 19.5782 56.8426 20.0647 56.866 20.3589C56.9121 20.6305 57.0395 20.8681 57.2476 21.0718C57.4792 21.2755 57.8259 21.3774 58.289 21.3774L60.9268 21.3095L61.135 24.9419C59.5845 25.2814 58.4046 25.4511 57.5948 25.4511C55.5121 25.4511 54.0891 24.9982 53.3258 24.0931C52.5621 23.1652 52.1804 21.4679 52.1804 19.0011V11.9401H50.1323V8.07016H52.1804V3.35156H56.831V8.07016H61.1V11.9401Z" fill="#010101"/>
<path d="M63.436 25.0441V8.07063H68.087V25.0441H63.436ZM63.436 5.89804V1.28125H68.087V5.89804H63.436Z" fill="#010101"/>
<path d="M87.4123 27.149C87.4123 29.0955 86.6486 30.5323 85.1216 31.4603C83.5945 32.3883 81.5234 32.8521 78.9089 32.8521C76.3175 32.8521 74.3159 32.5126 72.9044 31.8336C71.516 31.155 70.8218 29.9213 70.8218 28.1337C70.8218 26.7077 71.6549 25.3614 73.321 24.0939C72.4647 23.528 72.0366 22.668 72.0366 21.5139C72.0366 21.0613 72.3837 20.3144 73.0779 19.2734L73.3901 18.7982C71.817 17.6892 71.0302 16.0598 71.0302 13.9098C71.0302 11.7372 71.6895 10.1643 73.0085 9.19116C74.3504 8.218 76.1205 7.73145 78.3188 7.73145C79.3136 7.73145 80.2974 7.8446 81.2692 8.07091L81.8244 8.17275L87.4123 8.00301V11.6354L84.8094 11.4317C85.3182 12.2011 85.5727 12.9706 85.5727 13.7401C85.5727 16.0032 84.9829 17.5647 83.8026 18.4247C82.6227 19.2847 80.7716 19.7147 78.2493 19.7147C77.7171 19.7147 77.2429 19.6695 76.8263 19.5789C76.5951 20.1673 76.4792 20.6539 76.4792 21.0386C76.4792 21.4008 76.6761 21.6497 77.0693 21.7855C77.4625 21.9213 78.3883 22.0005 79.8458 22.0231C82.7613 22.0457 84.7514 22.4306 85.8158 23.1772C86.8802 23.9016 87.4123 25.2254 87.4123 27.149ZM75.4033 27.6583C75.4033 28.6313 76.6182 29.118 79.0476 29.118C81.5004 29.118 82.7267 28.5521 82.7267 27.4205C82.7267 26.8095 82.5186 26.4137 82.102 26.2326C81.6854 26.0742 80.8061 25.9837 79.4642 25.9611L76.3405 25.7234C75.7158 26.3344 75.4033 26.9793 75.4033 27.6583ZM75.6809 13.774C75.6809 15.4261 76.5602 16.2521 78.3188 16.2521C80.1004 16.2521 80.9912 15.4261 80.9912 13.774C80.9912 12.0993 80.1004 11.2619 78.3188 11.2619C76.5602 11.2619 75.6809 12.0993 75.6809 13.774Z" fill="#010101"/>
<path d="M90.4725 10.0054C91.6989 8.44386 93.7466 7.66309 96.616 7.66309C99.4851 7.66309 101.533 8.44386 102.759 10.0054C103.985 11.5443 104.599 13.7169 104.599 16.5232C104.599 22.4752 101.938 25.4514 96.616 25.4514C91.2942 25.4514 88.6333 22.4752 88.6333 16.5232C88.6333 13.7169 89.2465 11.5443 90.4725 10.0054ZM94.0477 20.3592C94.5334 21.174 95.3896 21.5813 96.616 21.5813C97.8424 21.5813 98.6868 21.174 99.1498 20.3592C99.6356 19.5445 99.8786 18.2658 99.8786 16.5232C99.8786 14.7806 99.6356 13.5133 99.1498 12.7212C98.6868 11.9291 97.8424 11.533 96.616 11.533C95.3896 11.533 94.5334 11.9291 94.0477 12.7212C93.585 13.5133 93.3534 14.7806 93.3534 16.5232C93.3534 18.2658 93.585 19.5445 94.0477 20.3592Z" fill="#010101"/>
</g>
<defs>
<clipPath id="clip0_131_544">
<rect width="104" height="33" fill="white" transform="translate(0.599121 0.5)"/>
</clipPath>
</defs>
</svg>
