<svg width="149" height="36" viewBox="0 0 149 36" fill="none" xmlns="http://www.w3.org/2000/svg">
<path d="M6.5 11.5219H19.6014L6.71465 24.4087L8.79659 26.4906L21.6834 13.6039V26.7053H21.7667L24.6277 23.8444V11.7866L21.4187 8.57764H9.35929L6.5 11.4369L6.5 11.5219Z" fill="#1E3251"/>
<path d="M42.1972 18.8228H44.6912V21.1401H42.1972V24.4393H39.4282V21.1401H32.1816V19.1173L39.6835 10.2212H42.1972V18.8228ZM35.7165 18.8228H39.4282V14.2863L35.7165 18.8228Z" fill="#1E3251"/>
<path d="M51.6465 14.7773C52.6152 14.7773 53.4793 14.9671 54.2387 15.3468C55.0111 15.7264 55.6134 16.2894 56.0454 17.0357C56.4905 17.7819 56.7131 18.6787 56.7131 19.7261C56.7131 21.284 56.2222 22.5016 55.2403 23.3789C54.2583 24.2429 52.8771 24.675 51.0966 24.675C49.8659 24.675 48.8316 24.472 47.9937 24.0662C47.1689 23.6603 46.5405 23.1236 46.1085 22.4558C45.6895 21.7881 45.4472 21.055 45.3818 20.2564H48.2098C48.6287 21.775 49.5844 22.5344 51.0769 22.5344C51.9934 22.5344 52.6873 22.2791 53.1586 21.7685C53.643 21.2579 53.8852 20.5706 53.8852 19.7065C53.8852 18.8293 53.643 18.1485 53.1586 17.6641C52.6741 17.1666 51.9868 16.9179 51.0966 16.9179C49.9183 16.9179 49.0149 17.4088 48.3865 18.3907L45.8335 18.1354L46.7958 10.2212H55.8883V12.5385H49.0935L48.6614 15.7985C49.3684 15.1176 50.3634 14.7773 51.6465 14.7773Z" fill="#1E3251"/>
<path d="M67.6121 10.2212C69.589 10.2212 71.376 10.6925 72.9733 11.6351C74.5837 12.5646 75.3888 14.4631 75.3888 17.3303C75.3888 20.1974 74.5837 22.1024 72.9733 23.045C71.376 23.9745 69.589 24.4393 67.6121 24.4393H62.8203V10.2212H67.6121ZM67.5139 21.9649C68.4172 21.9518 69.2224 21.8471 69.9294 21.6507C70.6494 21.4412 71.2582 20.996 71.7557 20.3153C72.2663 19.6344 72.5216 18.6394 72.5216 17.3303C72.5216 16.021 72.2663 15.026 71.7557 14.3452C71.2582 13.6644 70.6494 13.2193 69.9294 13.0098C69.2224 12.8003 68.4172 12.6956 67.5139 12.6956H65.5893V21.9649H67.5139Z" fill="#1E3251"/>
<path d="M81.8871 13.6384C83.0264 13.6384 84.0015 13.8937 84.8135 14.4043C85.6383 14.9018 86.2471 15.6153 86.6398 16.5449C87.0455 17.4744 87.2154 18.5676 87.1504 19.8245H79.2163C79.308 20.7147 79.5894 21.389 80.0607 21.8472C80.532 22.3054 81.1474 22.5346 81.9067 22.5346C82.5747 22.5346 83.111 22.3709 83.5174 22.0436C83.9358 21.7163 84.2175 21.3039 84.3618 20.8064H87.0915C86.8559 22.037 86.2728 22.9928 85.3437 23.6736C84.4268 24.3413 83.2817 24.6752 81.9067 24.6752C80.7808 24.6752 79.8054 24.446 78.9806 23.9878C78.1558 23.5296 77.5274 22.8881 77.0953 22.0633C76.6633 21.2253 76.4473 20.2565 76.4473 19.1568C76.4473 18.0701 76.6699 17.1078 77.115 16.27C77.5602 15.432 78.1951 14.7839 79.0199 14.3258C79.8447 13.8675 80.8005 13.6384 81.8871 13.6384ZM84.4207 18.0963C84.3422 17.3893 84.0869 16.8198 83.6548 16.3878C83.2356 15.9557 82.6397 15.7397 81.8674 15.7397C81.1605 15.7397 80.5845 15.9361 80.1393 16.3289C79.6942 16.7216 79.3996 17.3108 79.2555 18.0963H84.4207Z" fill="#1E3251"/>
<path d="M98.6675 13.8741V24.0074C98.6675 25.3821 98.2294 26.4884 97.3517 27.3263C96.4748 28.1773 95.1915 28.6028 93.5026 28.6028C92.0366 28.6028 90.8711 28.2755 90.007 27.6209C89.1429 26.9793 88.6323 26.1152 88.4752 25.0286H91.1657C91.4799 25.9974 92.2594 26.4819 93.5026 26.4819C94.3667 26.4819 94.9951 26.2659 95.3879 25.8338C95.7807 25.4148 95.9771 24.793 95.9771 23.9682V22.5542C95.2444 23.6801 94.1379 24.2431 92.6582 24.2431C91.7291 24.2431 90.9104 24.0336 90.2034 23.6147C89.51 23.1826 88.9662 22.5673 88.5734 21.7687C88.1943 20.97 88.0039 20.0274 88.0039 18.9408C88.0039 17.8541 88.1943 16.9115 88.5734 16.1129C88.9662 15.3142 89.51 14.7054 90.2034 14.2865C90.9104 13.8544 91.7291 13.6384 92.6582 13.6384C94.1507 13.6384 95.2572 14.2014 95.9771 15.3273V13.8741H98.6675ZM93.3848 22.1222C94.2625 22.1222 94.9362 21.8276 95.4075 21.2384C95.8789 20.6493 96.1145 19.8834 96.1145 18.9408C96.1145 17.9981 95.8789 17.2322 95.4075 16.6431C94.9362 16.0539 94.2625 15.7594 93.3848 15.7594C92.495 15.7594 91.8273 16.0604 91.3817 16.6627C90.9497 17.2519 90.7336 18.0112 90.7336 18.9408C90.7336 19.8703 90.9497 20.6362 91.3817 21.2384C91.8273 21.8276 92.495 22.1222 93.3848 22.1222Z" fill="#1E3251"/>
<path d="M106.01 13.7563C106.232 13.7563 106.455 13.776 106.677 13.8153V16.5057C106.442 16.4664 106.193 16.4468 105.931 16.4468C105.106 16.4468 104.491 16.6432 104.085 17.0359C103.68 17.4156 103.424 17.8672 103.319 18.391C103.214 18.9016 103.162 19.4972 103.162 20.1781V24.4396H100.472V13.8742H103.123V15.6809C103.699 14.3978 104.661 13.7563 106.01 13.7563Z" fill="#1E3251"/>
<path d="M112.698 13.6384C113.837 13.6384 114.813 13.8937 115.624 14.4043C116.449 14.9018 117.057 15.6153 117.45 16.5449C117.856 17.4744 118.026 18.5676 117.961 19.8245H110.027C110.119 20.7147 110.4 21.389 110.871 21.8472C111.343 22.3054 111.958 22.5346 112.717 22.5346C113.385 22.5346 113.922 22.3709 114.328 22.0436C114.747 21.7163 115.029 21.3039 115.172 20.8064H117.902C117.666 22.037 117.084 22.9928 116.154 23.6736C115.238 24.3413 114.092 24.6752 112.717 24.6752C111.592 24.6752 110.616 24.446 109.791 23.9878C108.966 23.5296 108.338 22.8881 107.906 22.0633C107.474 21.2253 107.258 20.2565 107.258 19.1568C107.258 18.0701 107.481 17.1078 107.926 16.27C108.371 15.432 109.006 14.7839 109.83 14.3258C110.655 13.8675 111.611 13.6384 112.698 13.6384ZM115.231 18.0963C115.152 17.3893 114.897 16.8198 114.465 16.3878C114.047 15.9557 113.451 15.7397 112.678 15.7397C111.971 15.7397 111.395 15.9361 110.95 16.3289C110.505 16.7216 110.21 17.3108 110.066 18.0963H115.231Z" fill="#1E3251"/>
<path d="M124.216 13.6382C125.355 13.6382 126.33 13.8935 127.142 14.4041C127.967 14.9015 128.576 15.6151 128.969 16.5447C129.374 17.4741 129.544 18.5674 129.479 19.8242H121.545C121.637 20.7145 121.918 21.3887 122.39 21.847C122.861 22.3052 123.476 22.5343 124.236 22.5343C124.904 22.5343 125.44 22.3707 125.846 22.0434C126.265 21.716 126.546 21.3036 126.691 20.8062H129.42C129.185 22.0368 128.602 22.9925 127.673 23.6734C126.756 24.3411 125.61 24.6749 124.236 24.6749C123.11 24.6749 122.135 24.4457 121.31 23.9876C120.485 23.5293 119.856 22.8878 119.424 22.063C118.992 21.2251 118.776 20.2563 118.776 19.1565C118.776 18.0699 118.998 17.1076 119.444 16.2697C119.889 15.4318 120.524 14.7837 121.349 14.3255C122.174 13.8673 123.129 13.6382 124.216 13.6382ZM126.75 18.0961C126.671 17.3891 126.416 16.8196 125.984 16.3875C125.564 15.9555 124.968 15.7395 124.197 15.7395C123.49 15.7395 122.913 15.9359 122.468 16.3286C122.023 16.7214 121.728 17.3105 121.585 18.0961H126.75Z" fill="#1E3251"/>
<path d="M135.355 24.6749C133.757 24.6749 132.52 24.3214 131.643 23.6144C130.766 22.9075 130.268 22.0172 130.15 20.9436H132.841C133.194 22.0695 134.052 22.6325 135.413 22.6325C136.042 22.6325 136.533 22.5212 136.886 22.2987C137.24 22.063 137.417 21.7619 137.417 21.3953C137.417 21.0025 137.22 20.7276 136.827 20.5705C136.447 20.4003 135.793 20.2301 134.864 20.0599C134 19.9159 133.26 19.7457 132.644 19.5493C132.029 19.3398 131.499 19.0125 131.054 18.5674C130.609 18.1222 130.386 17.5266 130.386 16.7803C130.386 15.7198 130.831 14.9343 131.721 14.4237C132.612 13.9 133.698 13.6382 134.981 13.6382C136.395 13.6382 137.522 13.9458 138.359 14.5612C139.21 15.1765 139.714 16.0013 139.871 17.0356H137.181C137.024 16.6036 136.769 16.2697 136.415 16.0341C136.074 15.7984 135.577 15.6806 134.923 15.6806C134.36 15.6806 133.908 15.7722 133.567 15.9555C133.24 16.1387 133.077 16.3875 133.077 16.7018C133.077 16.9767 133.207 17.2058 133.469 17.3891C133.744 17.5593 134.046 17.6837 134.373 17.7622C134.7 17.8408 135.263 17.9586 136.062 18.1157C137.475 18.3775 138.503 18.7245 139.145 19.1565C139.786 19.5886 140.107 20.2431 140.107 21.1204C140.107 22.1939 139.695 23.058 138.87 23.7126C138.045 24.3541 136.873 24.6749 135.355 24.6749Z" fill="#1E3251"/>
<path d="M144.738 16.5448C144.148 16.5448 143.599 16.4138 143.088 16.152C142.59 15.8771 142.191 15.4908 141.89 14.9934C141.602 14.4958 141.458 13.9198 141.458 13.2652C141.458 12.6106 141.602 12.0345 141.89 11.537C142.191 11.0395 142.59 10.6598 143.088 10.398C143.599 10.1231 144.148 9.9856 144.738 9.9856C145.327 9.9856 145.87 10.1231 146.368 10.398C146.878 10.6598 147.284 11.0461 147.585 11.5567C147.886 12.0541 148.037 12.6236 148.037 13.2652C148.037 13.9067 147.886 14.4828 147.585 14.9934C147.284 15.4908 146.878 15.8771 146.368 16.152C145.87 16.4138 145.327 16.5448 144.738 16.5448ZM144.738 14.8952C145.182 14.8952 145.536 14.7511 145.798 14.4631C146.073 14.162 146.21 13.7626 146.21 13.2652C146.21 12.7677 146.073 12.3749 145.798 12.0869C145.536 11.7988 145.182 11.6549 144.738 11.6549C144.306 11.6549 143.952 11.7988 143.677 12.0869C143.415 12.3749 143.284 12.7677 143.284 13.2652C143.284 13.7626 143.415 14.162 143.677 14.4631C143.952 14.7511 144.306 14.8952 144.738 14.8952Z" fill="#1E3251"/>
<path fill-rule="evenodd" clip-rule="evenodd" d="M144.748 11.8027C143.936 11.8027 143.279 12.4605 143.279 13.2718C143.279 14.0832 143.936 14.7409 144.748 14.7409C145.56 14.7409 146.217 14.0832 146.217 13.2718C146.217 12.4605 145.56 11.8027 144.748 11.8027ZM144.748 16.5613C146.565 16.5613 148.038 15.0885 148.038 13.2718C148.038 11.4551 146.565 9.98242 144.748 9.98242C142.931 9.98242 141.459 11.4551 141.459 13.2718C141.459 15.0885 142.931 16.5613 144.748 16.5613Z" fill="#1E3251"/>
</svg>
