<svg width="149" height="40" viewBox="0 0 149 40" fill="none" xmlns="http://www.w3.org/2000/svg">
<path fill-rule="evenodd" clip-rule="evenodd" d="M13.315 23.456L17.0761 27.2171C19.3649 29.5059 23.0757 29.5059 25.3646 27.2171C26.1194 26.4622 26.6253 25.5527 26.8822 24.5906L29.5088 27.2171C31.7976 29.5059 35.5084 29.5059 37.7972 27.2171C40.086 24.9283 40.086 21.2174 37.7972 18.9287L29.5088 10.6402C27.22 8.3514 23.5091 8.3514 21.2203 10.6402C20.4654 11.395 19.9596 12.3046 19.7027 13.2667L17.0761 10.6402C14.7873 8.3514 11.0765 8.3514 8.78763 10.6402L1.96693 17.4609C-0.655644 20.0835 -0.655644 24.3355 1.96693 26.9581C4.5895 29.5807 8.84155 29.5807 11.4641 26.9581C12.4569 25.9653 13.0739 24.739 13.315 23.456ZM15.004 12.7123C13.8596 11.5679 12.0041 11.5679 10.8597 12.7123C9.71587 13.8562 9.71538 15.7105 10.8583 16.8551L19.1482 25.145C20.2926 26.2893 22.1481 26.2893 23.2924 25.145C24.4362 24.0012 24.4368 22.1471 23.2942 21.0026L15.004 12.7123ZM9.39202 19.533L6.71552 16.8565L4.03904 19.533C2.56087 21.0112 2.56087 23.4078 4.03904 24.886C5.51722 26.3642 7.91383 26.3642 9.39202 24.886C10.8702 23.4078 10.8702 21.0112 9.39202 19.533ZM23.29 16.8541C22.1481 15.7095 22.1488 13.8559 23.2924 12.7123C24.4368 11.5679 26.2922 11.5679 27.4367 12.7123L35.7251 21.0008C36.8695 22.1452 36.8695 24.0006 35.7251 25.145C34.5807 26.2893 32.7253 26.2893 31.5809 25.145L23.29 16.8541Z" fill="#1E3251"/>
<path d="M49.8472 27.1655H46.0991V9.49951H49.8472L55.0992 21.031L60.3751 9.49951H64.1709V27.1655H60.4229V23.4652C60.4229 19.6455 60.4229 18.81 60.6139 17.4969L56.8658 25.5191H53.3326L49.6084 17.4969C49.8233 18.81 49.8472 20.2901 49.8472 22.2238V27.1655Z" fill="#1E3251"/>
<path d="M71.0021 27.4759C68.4716 27.4759 66.896 25.9958 66.896 23.6563C66.896 21.46 68.4477 20.0992 71.3125 19.8844L74.6547 19.6218V19.4308C74.6547 18.261 73.9385 17.6403 72.6255 17.6403C71.0738 17.6403 70.2382 18.2371 70.2382 19.3114H67.1825C67.1825 16.6138 69.4027 14.8472 72.8165 14.8472C76.2781 14.8472 78.2356 16.7809 78.2356 20.1947V27.1656H74.9889L74.7502 25.59C74.3682 26.6881 72.7926 27.4759 71.0021 27.4759ZM72.2913 24.7544C73.6998 24.7544 74.6786 24.0621 74.6786 22.7014V22.0568L72.8165 22.2239C71.217 22.3671 70.644 22.7252 70.644 23.4892C70.644 24.3486 71.1693 24.7544 72.2913 24.7544Z" fill="#1E3251"/>
<path d="M80.2753 20.9825C80.2753 17.3538 82.6387 14.8232 86.0048 14.8232C87.6281 14.8232 88.9173 15.4439 89.5619 16.4227L89.7528 15.2291H93.2144V26.4016C93.2144 30.6749 90.7555 33.2531 86.6732 33.2531C83.0207 33.2531 80.5618 31.1762 80.2275 27.7862H83.9517C84.0233 29.1231 85.026 29.9109 86.6494 29.9109C88.416 29.9109 89.538 28.8605 89.538 27.1655V25.6138C88.8218 26.4732 87.4849 27.0223 85.9332 27.0223C82.591 27.0223 80.2753 24.5634 80.2753 20.9825ZM83.9756 20.887C83.9756 22.6058 85.1215 23.8233 86.7448 23.8233C88.416 23.8233 89.538 22.6536 89.538 20.887C89.538 19.1442 88.416 18.0222 86.721 18.0222C85.0976 18.0222 83.9756 19.192 83.9756 20.887Z" fill="#1E3251"/>
<path d="M99.6564 27.1656H95.98V15.2291H99.4416L99.6803 16.4705C100.42 15.444 101.781 14.8472 103.333 14.8472C106.174 14.8472 107.821 16.6615 107.821 19.7889V27.1656H104.145V20.6722C104.145 19.1682 103.309 18.1894 102.044 18.1894C100.587 18.1894 99.6564 19.1443 99.6564 20.6244V27.1656Z" fill="#1E3251"/>
<path d="M109.813 21.1733C109.813 17.4014 112.582 14.8708 116.402 14.8708C120.198 14.8708 122.967 17.4014 122.967 21.1733C122.967 24.9452 120.198 27.4519 116.402 27.4519C112.582 27.4519 109.813 24.9452 109.813 21.1733ZM113.513 21.1494C113.513 22.9638 114.683 24.1574 116.402 24.1574C118.097 24.1574 119.267 22.9638 119.267 21.1494C119.267 19.359 118.097 18.1653 116.402 18.1653C114.683 18.1653 113.513 19.359 113.513 21.1494Z" fill="#1E3251"/>
<path d="M128.775 27.1655H125.098V9.16528H128.775V27.1655Z" fill="#1E3251"/>
<path d="M133.346 13.367C132.176 13.367 131.245 12.4359 131.245 11.2662C131.245 10.0964 132.176 9.18921 133.346 9.18921C134.492 9.18921 135.423 10.0964 135.423 11.2662C135.423 12.4359 134.492 13.367 133.346 13.367ZM131.532 27.1655V15.2291H135.208V27.1655H131.532Z" fill="#1E3251"/>
<path d="M141.572 27.4759C139.041 27.4759 137.466 25.9958 137.466 23.6563C137.466 21.46 139.018 20.0992 141.882 19.8844L145.225 19.6218V19.4308C145.225 18.261 144.508 17.6403 143.195 17.6403C141.644 17.6403 140.808 18.2371 140.808 19.3114H137.752C137.752 16.6138 139.972 14.8472 143.386 14.8472C146.848 14.8472 148.805 16.7809 148.805 20.1947V27.1656H145.559L145.32 25.59C144.938 26.6881 143.362 27.4759 141.572 27.4759ZM142.861 24.7544C144.27 24.7544 145.248 24.0621 145.248 22.7014V22.0568L143.386 22.2239C141.787 22.3671 141.214 22.7252 141.214 23.4892C141.214 24.3486 141.739 24.7544 142.861 24.7544Z" fill="#1E3251"/>
</svg>
