<svg width="129" height="43" viewBox="0 0 129 43" fill="none" xmlns="http://www.w3.org/2000/svg">
<g clip-path="url(#clip0_210_582)">
<path d="M-0.208008 29.8171L5.72021 12.0325H11.0873L17.0155 29.8171H13.0634L11.868 26.1577H4.93953L3.74413 29.8171H-0.208008ZM5.81779 23.2546H10.9897L9.47718 18.717L8.47695 15.4723H8.33057L7.33034 18.717L5.81779 23.2546Z" fill="#1E3251"/>
<path d="M23.6309 30.0368C22.3298 30.0368 21.1913 29.7603 20.2155 29.2074C19.2397 28.6381 18.4834 27.8493 17.9467 26.8409C17.41 25.8163 17.1416 24.629 17.1416 23.2791C17.1416 21.913 17.41 20.7257 17.9467 19.7173C18.4996 18.6927 19.2722 17.9039 20.2643 17.3509C21.2564 16.7817 22.4193 16.4971 23.7529 16.4971C24.8751 16.4971 25.8753 16.7085 26.7536 17.1314C27.6319 17.5542 28.3231 18.1397 28.8273 18.8879C29.3477 19.636 29.6323 20.5061 29.6811 21.4982H26.1681C26.0542 20.8152 25.7696 20.3028 25.3142 19.9613C24.8588 19.6035 24.3059 19.4246 23.6553 19.4246C22.712 19.4246 21.9964 19.7743 21.5085 20.4736C21.0206 21.173 20.7766 22.1081 20.7766 23.2791C20.7766 24.564 21.0368 25.5236 21.5573 26.1579C22.094 26.7922 22.7852 27.1093 23.6309 27.1093C24.3953 27.1093 24.9971 26.9141 25.4362 26.5238C25.8916 26.1335 26.1518 25.6212 26.2169 24.9869H29.7055C29.6567 26.0115 29.364 26.906 28.8273 27.6704C28.3068 28.4186 27.5993 29.0041 26.7048 29.4269C25.8103 29.8335 24.7857 30.0368 23.6309 30.0368Z" fill="#1E3251"/>
<path d="M31.4189 29.8173V16.741H34.8832L35.0051 19.1074H35.1515C35.4768 18.2454 36.0054 17.5949 36.7373 17.1558C37.4691 16.7166 38.2742 16.4971 39.1525 16.4971C40.0632 16.4971 40.8927 16.7166 41.6407 17.1558C42.3888 17.5949 42.9418 18.3512 43.2996 19.4246H43.4948C43.8038 18.4487 44.3486 17.7169 45.1293 17.2289C45.9262 16.741 46.8207 16.4971 47.8128 16.4971C48.6586 16.4971 49.4148 16.676 50.0817 17.0338C50.7485 17.3916 51.2771 17.969 51.6674 18.7659C52.074 19.5466 52.2773 20.5956 52.2773 21.913V29.8173H48.6911V22.6936C48.6911 21.5877 48.5041 20.7664 48.13 20.2296C47.7722 19.6929 47.1867 19.4246 46.3735 19.4246C45.5115 19.4246 44.8365 19.7417 44.3486 20.376C43.877 20.9941 43.6411 21.7178 43.6411 22.5473V29.8173H40.0551V22.6936C40.0551 21.5877 39.8681 20.7664 39.494 20.2296C39.1362 19.6929 38.5507 19.4246 37.7375 19.4246C36.8592 19.4246 36.1843 19.7417 35.7126 20.376C35.241 20.9941 35.0051 21.7178 35.0051 22.5473V29.8173H31.4189Z" fill="#1E3251"/>
<path d="M60.4651 30.0368C59.099 30.0368 57.928 29.7603 56.9521 29.2074C55.9925 28.6544 55.2525 27.8818 54.7321 26.8897C54.2116 25.8814 53.9514 24.7104 53.9514 23.3767C53.9514 21.9618 54.2116 20.742 54.7321 19.7173C55.2688 18.6927 56.0169 17.9039 56.9765 17.3509C57.9361 16.7817 59.0583 16.4971 60.3431 16.4971C61.8557 16.4971 63.0999 16.8305 64.0757 17.4973C65.0516 18.1479 65.7509 19.0505 66.1738 20.2053C66.5966 21.3437 66.7349 22.6367 66.5885 24.0842H57.4888C57.4726 25.1251 57.7409 25.9302 58.2939 26.4994C58.8469 27.0524 59.5706 27.3289 60.4651 27.3289C61.1482 27.3289 61.7256 27.1825 62.1972 26.8897C62.6852 26.5807 62.9942 26.1741 63.1243 25.6699H66.5153C66.4015 26.5482 66.0681 27.3126 65.5151 27.9632C64.9784 28.6137 64.279 29.126 63.417 29.5001C62.555 29.8579 61.5711 30.0368 60.4651 30.0368ZM60.3431 19.205C59.53 19.205 58.8713 19.4408 58.3671 19.9125C57.8629 20.3679 57.5783 20.9941 57.5132 21.791H63.0755C63.0267 20.9127 62.7421 20.2622 62.2216 19.8393C61.7175 19.4165 61.0913 19.205 60.3431 19.205Z" fill="#1E3251"/>
<path d="M81.3947 30.0368C79.622 30.0368 78.0606 29.6789 76.7107 28.9633C75.3771 28.2477 74.3362 27.2068 73.588 25.8407C72.8399 24.4745 72.4658 22.8318 72.4658 20.9127C72.4658 18.9935 72.8399 17.359 73.588 16.0091C74.3362 14.6429 75.3771 13.602 76.7107 12.8864C78.0606 12.1708 79.622 11.813 81.3947 11.813C82.9235 11.813 84.2816 12.0813 85.4689 12.6181C86.6561 13.1385 87.6157 13.8785 88.3476 14.8381C89.0795 15.7814 89.5267 16.8873 89.6894 18.1559H85.8348C85.6234 17.2451 85.1192 16.5051 84.3222 15.9359C83.5416 15.3504 82.5657 15.0576 81.3947 15.0576C79.8659 15.0576 78.6461 15.5456 77.7353 16.5214C76.8408 17.4972 76.3936 18.961 76.3936 20.9127C76.3936 22.8806 76.8408 24.3525 77.7353 25.3283C78.6461 26.3042 79.8659 26.7921 81.3947 26.7921C82.5332 26.7921 83.509 26.5075 84.3222 25.9382C85.1354 25.369 85.6396 24.6127 85.8348 23.6694H89.6894C89.543 24.938 89.0957 26.0521 88.3476 27.0117C87.5994 27.9712 86.6236 28.7194 85.4201 29.2561C84.2328 29.7765 82.891 30.0368 81.3947 30.0368Z" fill="#1E3251"/>
<path d="M97.4775 30.0368C96.1764 30.0368 95.0298 29.7685 94.0377 29.2318C93.0456 28.695 92.2731 27.9225 91.7201 26.9141C91.1834 25.9058 90.915 24.6941 90.915 23.2791C90.915 21.9292 91.1753 20.7501 91.6957 19.7417C92.2162 18.7171 92.9643 17.9202 93.9401 17.3509C94.916 16.7817 96.0951 16.4971 97.4775 16.4971C98.7787 16.4971 99.9171 16.7654 100.893 17.3021C101.885 17.8388 102.649 18.6195 103.186 19.6441C103.739 20.6525 104.016 21.8642 104.016 23.2791C104.016 24.629 103.755 25.8163 103.235 26.8409C102.715 27.8493 101.966 28.6381 100.991 29.2074C100.031 29.7603 98.86 30.0368 97.4775 30.0368ZM97.4531 27.1337C98.3314 27.1337 99.0389 26.8166 99.5756 26.1823C100.112 25.548 100.381 24.5803 100.381 23.2791C100.381 21.978 100.12 21.0103 99.6 20.376C99.0795 19.7417 98.3721 19.4246 97.4775 19.4246C96.583 19.4246 95.8674 19.7417 95.3307 20.376C94.794 21.0103 94.5256 21.978 94.5256 23.2791C94.5256 24.564 94.7859 25.5317 95.3063 26.1823C95.843 26.8166 96.5586 27.1337 97.4531 27.1337Z" fill="#1E3251"/>
<path d="M105.812 29.8173V16.7411H109.057L109.204 18.8391H109.326C109.618 17.9934 110.082 17.4079 110.716 17.0826C111.367 16.7411 112.107 16.5703 112.936 16.5703H113.668V19.937H112.863C111.659 19.937 110.789 20.2053 110.253 20.742C109.716 21.2625 109.431 22.0106 109.399 22.9864V29.8173H105.812Z" fill="#1E3251"/>
<path d="M115.069 33.8914V16.741H118.533L118.655 19.0099H118.85C119.159 18.2454 119.672 17.6355 120.387 17.1802C121.119 16.7248 121.989 16.4971 122.998 16.4971C124.559 16.4971 125.82 17.0663 126.779 18.2048C127.755 19.327 128.243 21.0185 128.243 23.2791C128.243 25.5236 127.755 27.215 126.779 28.3535C125.82 29.492 124.559 30.0612 122.998 30.0612C121.989 30.0612 121.119 29.8335 120.387 29.3781C119.672 28.9065 119.159 28.2966 118.85 27.5484H118.655V33.8914H115.069ZM121.656 27.1581C122.534 27.1581 123.234 26.8491 123.754 26.2311C124.291 25.5968 124.559 24.6128 124.559 23.2791C124.559 21.9455 124.291 20.9697 123.754 20.3516C123.234 19.7173 122.534 19.4002 121.656 19.4002C120.989 19.4002 120.436 19.5547 119.997 19.8637C119.558 20.1727 119.233 20.5793 119.021 21.0835C118.81 21.5714 118.704 22.0919 118.704 22.6448V23.9134C118.704 24.4664 118.81 24.995 119.021 25.4992C119.233 25.9871 119.558 26.3856 119.997 26.6946C120.436 27.0036 120.989 27.1581 121.656 27.1581Z" fill="#1E3251"/>
</g>
<defs>
<clipPath id="clip0_210_582">
<rect width="129" height="43" fill="white"/>
</clipPath>
</defs>
</svg>
