<svg width="163" height="26" viewBox="0 0 163 26" fill="none" xmlns="http://www.w3.org/2000/svg">
<g clip-path="url(#clip0_131_504)">
<path d="M0.876953 25.0895V0.323242H5.53125L17.4944 17.7658V0.323242H22.1487V25.0895H17.4944L5.53125 7.68234V25.0895H0.876953Z" fill="#010101"/>
<path d="M33.9194 25.5131C32.1011 25.5131 30.4892 25.1358 29.0833 24.3808C27.6773 23.6261 26.5743 22.5646 25.7742 21.1967C24.9741 19.8287 24.5742 18.2482 24.5742 16.4557C24.5742 14.6394 24.962 13.0238 25.738 11.6085C26.5377 10.1933 27.6287 9.09654 29.0105 8.31818C30.4164 7.51623 32.0649 7.11523 33.9556 7.11523C35.7256 7.11523 37.2888 7.49263 38.6465 8.24742C40.0041 9.00221 41.0585 10.04 41.81 11.3609C42.5859 12.6581 42.9737 14.1087 42.9737 15.7126C42.9737 15.9721 42.9616 16.2434 42.9371 16.5264C42.9371 16.8094 42.9251 17.1041 42.9009 17.411H29.1923C29.2892 18.7789 29.774 19.8522 30.6469 20.6307C31.5436 21.4088 32.6225 21.7982 33.8832 21.7982C34.8285 21.7982 35.6162 21.5975 36.2465 21.1967C36.901 20.772 37.3858 20.2295 37.7011 19.5692H42.4282C42.0887 20.6777 41.5191 21.6918 40.719 22.612C39.9434 23.5083 38.9739 24.2156 37.8102 24.7346C36.6709 25.2536 35.374 25.5131 33.9194 25.5131ZM33.9556 10.7948C32.8164 10.7948 31.8103 11.1132 30.9377 11.7501C30.0648 12.3633 29.5073 13.3068 29.2651 14.5805H38.2466C38.1738 13.4247 37.7374 12.5048 36.9376 11.8208C36.1375 11.1368 35.1435 10.7948 33.9556 10.7948Z" fill="#010101"/>
<path d="M42.1182 25.0877L48.6631 16.3134L42.1182 7.53906H47.0999L51.6814 13.766L56.2266 7.53906H61.2446L54.663 16.3134L61.2446 25.0877H56.2266L51.6814 18.8608L47.0999 25.0877H42.1182Z" fill="#010101"/>
<path d="M70.4282 25.0882C68.5371 25.0882 67.0222 24.6401 65.8825 23.7437C64.7433 22.8474 64.1737 21.2555 64.1737 18.9674V11.3253H61.083V7.53956H64.1737L64.7192 2.83398H68.828V7.53956H73.7007V11.3253H68.828V19.003C68.828 19.852 69.0098 20.4418 69.3734 20.7718C69.7612 21.0786 70.4157 21.2317 71.3369 21.2317H73.5917V25.0882H70.4282Z" fill="#010101"/>
<path d="M75.8779 25.0884V7.53979H79.9871L80.387 9.91027C80.9687 9.06115 81.7326 8.38895 82.6779 7.89362C83.6474 7.3747 84.7625 7.11523 86.0232 7.11523C88.8109 7.11523 90.7865 8.16487 91.9503 10.2641C92.6048 9.29702 93.4773 8.53044 94.5683 7.96439C95.6834 7.3983 96.8954 7.11523 98.2044 7.11523C100.556 7.11523 102.362 7.79927 103.623 9.1673C104.883 10.5353 105.513 12.5402 105.513 15.1819V25.0884H100.859V15.6065C100.859 14.097 100.556 12.9412 99.9499 12.1393C99.3682 11.3373 98.459 10.9363 97.2229 10.9363C95.9621 10.9363 94.944 11.3845 94.1684 12.2807C93.417 13.1771 93.0412 14.4272 93.0412 16.0311V25.0884H88.3866V15.6065C88.3866 14.097 88.0837 12.9412 87.4778 12.1393C86.8716 11.3373 85.9383 10.9363 84.6776 10.9363C83.4414 10.9363 82.4353 11.3845 81.6598 12.2807C80.9083 13.1771 80.5326 14.4272 80.5326 16.0311V25.0884H75.8779Z" fill="#010101"/>
<path d="M116.769 25.5131C115.024 25.5131 113.448 25.1237 112.042 24.3455C110.66 23.567 109.557 22.4938 108.733 21.1258C107.933 19.7343 107.533 18.1304 107.533 16.3141C107.533 14.4979 107.945 12.9058 108.769 11.5378C109.594 10.1462 110.697 9.06115 112.078 8.2828C113.484 7.50445 115.06 7.11523 116.806 7.11523C118.527 7.11523 120.078 7.50445 121.46 8.2828C122.866 9.06115 123.969 10.1462 124.769 11.5378C125.593 12.9058 126.005 14.4979 126.005 16.3141C126.005 18.1304 125.593 19.7343 124.769 21.1258C123.969 22.4938 122.866 23.567 121.46 24.3455C120.054 25.1237 118.49 25.5131 116.769 25.5131ZM116.769 21.5857C117.981 21.5857 119.036 21.1493 119.933 20.2768C120.83 19.3805 121.278 18.0595 121.278 16.3141C121.278 14.5687 120.83 13.2596 119.933 12.3869C119.036 11.4906 117.993 11.0424 116.806 11.0424C115.569 11.0424 114.503 11.4906 113.606 12.3869C112.733 13.2596 112.297 14.5687 112.297 16.3141C112.297 18.0595 112.733 19.3805 113.606 20.2768C114.503 21.1493 115.557 21.5857 116.769 21.5857Z" fill="#010101"/>
<path d="M132.333 25.0877L125.715 7.53906H130.588L135.169 20.8069L139.751 7.53906H144.623L137.969 25.0877H132.333Z" fill="#010101"/>
<path d="M153.618 25.5131C151.8 25.5131 150.187 25.1358 148.782 24.3808C147.376 23.6261 146.273 22.5646 145.472 21.1967C144.673 19.8287 144.272 18.2482 144.272 16.4557C144.272 14.6394 144.661 13.0238 145.436 11.6085C146.236 10.1933 147.327 9.09654 148.709 8.31818C150.115 7.51623 151.763 7.11523 153.654 7.11523C155.424 7.11523 156.987 7.49263 158.345 8.24742C159.702 9.00221 160.757 10.04 161.508 11.3609C162.284 12.6581 162.672 14.1087 162.672 15.7126C162.672 15.9721 162.66 16.2434 162.636 16.5264C162.636 16.8094 162.623 17.1041 162.599 17.411H148.891C148.987 18.7789 149.473 19.8522 150.345 20.6307C151.242 21.4088 152.321 21.7982 153.581 21.7982C154.527 21.7982 155.315 21.5975 155.945 21.1967C156.599 20.772 157.084 20.2295 157.399 19.5692H162.126C161.787 20.6777 161.217 21.6918 160.418 22.612C159.642 23.5083 158.672 24.2156 157.508 24.7346C156.369 25.2536 155.072 25.5131 153.618 25.5131ZM153.654 10.7948C152.515 10.7948 151.509 11.1132 150.636 11.7501C149.763 12.3633 149.206 13.3068 148.963 14.5805H157.945C157.872 13.4247 157.436 12.5048 156.636 11.8208C155.836 11.1368 154.842 10.7948 153.654 10.7948Z" fill="#010101"/>
</g>
<defs>
<clipPath id="clip0_131_504">
<rect width="163" height="26" fill="white"/>
</clipPath>
</defs>
</svg>
