<svg width="168" height="34" viewBox="0 0 168 34" fill="none" xmlns="http://www.w3.org/2000/svg">
<g clip-path="url(#clip0_131_513)">
<path d="M21.2803 4.57405H9.63416V0.93457H21.2803C25.3005 0.93457 28.5593 4.19347 28.5593 8.21352V19.8598H24.9198V8.21352C24.9198 6.20351 23.2904 4.57405 21.2803 4.57405Z" fill="#010101"/>
<path d="M8.17873 24.9547H19.8249V28.5941H8.17873C4.15868 28.5941 0.89978 25.3354 0.89978 21.3152V9.66895H4.53926V21.3152C4.53926 23.3253 6.16868 24.9547 8.17873 24.9547Z" fill="#010101"/>
<path fill-rule="evenodd" clip-rule="evenodd" d="M22.0083 14.7643C22.0083 18.7844 18.7496 22.0432 14.7295 22.0432C10.7095 22.0432 7.45056 18.7844 7.45056 14.7643C7.45056 10.7442 10.7095 7.48535 14.7295 7.48535C18.7496 7.48535 22.0083 10.7442 22.0083 14.7643ZM18.369 14.7643C18.369 16.7743 16.7395 18.4038 14.7295 18.4038C12.7195 18.4038 11.0901 16.7743 11.0901 14.7643C11.0901 12.7543 12.7195 11.1248 14.7295 11.1248C16.7395 11.1248 18.369 12.7543 18.369 14.7643Z" fill="#010101"/>
<path d="M44.0915 26.2764C42.7133 26.2764 41.4726 26.0402 40.3694 25.5674C39.2667 25.0754 38.4001 24.3861 37.7701 23.4999C37.1398 22.6136 36.8246 21.5797 36.8246 20.3979H40.4288C40.5074 21.2841 40.852 22.0128 41.4628 22.5842C42.0927 23.1552 42.9691 23.4409 44.0915 23.4409C45.2536 23.4409 46.1595 23.165 46.8095 22.6136C47.4591 22.0426 47.7842 21.314 47.7842 20.4278C47.7842 19.7385 47.5774 19.1773 47.164 18.7438C46.7698 18.3105 46.2679 17.9757 45.6572 17.7394C45.0666 17.5031 44.2393 17.2471 43.1758 16.9714C41.8369 16.6169 40.744 16.2624 39.897 15.9079C39.0698 15.5338 38.3608 14.9627 37.7701 14.1946C37.1791 13.4266 36.8839 12.4025 36.8839 11.1224C36.8839 9.94081 37.1791 8.90691 37.7701 8.0207C38.3608 7.13448 39.1881 6.45507 40.2515 5.98241C41.315 5.50975 42.5459 5.27344 43.9441 5.27344C45.9331 5.27344 47.5578 5.77561 48.8181 6.78C50.0981 7.76466 50.8071 9.12353 50.945 10.8565H47.2229C47.164 10.1082 46.8095 9.46815 46.1595 8.93642C45.5095 8.4047 44.6531 8.13883 43.5897 8.13883C42.6245 8.13883 41.8369 8.38501 41.2262 8.87735C40.6158 9.3697 40.3105 10.0787 40.3105 11.0043C40.3105 11.6344 40.4976 12.1563 40.8717 12.5699C41.2655 12.9638 41.7579 13.2789 42.349 13.5152C42.9397 13.7515 43.7469 14.0075 44.771 14.2832C46.13 14.6574 47.2328 15.0316 48.0797 15.4058C48.9462 15.7799 49.6749 16.3609 50.2655 17.1486C50.8763 17.9167 51.1812 18.9505 51.1812 20.2505C51.1812 21.294 50.8959 22.2788 50.3249 23.2043C49.7731 24.1298 48.9561 24.8785 47.873 25.4495C46.8095 26.0009 45.5492 26.2764 44.0915 26.2764Z" fill="#010101"/>
<path d="M61.8902 9.52734C63.1706 9.52734 64.3127 9.79321 65.3172 10.3249C66.341 10.8566 67.1387 11.6444 67.7098 12.6882C68.2808 13.7319 68.5665 14.9923 68.5665 16.4693V26.0698H65.2284V16.9715C65.2284 15.5142 64.864 14.4015 64.1354 13.6334C63.4068 12.8457 62.4121 12.4518 61.1518 12.4518C59.8914 12.4518 58.8869 12.8457 58.1387 13.6334C57.41 14.4015 57.0457 15.5142 57.0457 16.9715V26.0698H53.6781V9.79321H57.0457V11.6542C57.5971 10.9847 58.2963 10.4628 59.1432 10.0886C60.0097 9.71442 60.9254 9.52734 61.8902 9.52734Z" fill="#010101"/>
<path d="M70.2621 17.8577C70.2621 16.2231 70.5969 14.7757 71.2666 13.5153C71.9559 12.2549 72.8814 11.28 74.0432 10.5908C75.2249 9.88183 76.5245 9.52734 77.9425 9.52734C79.2229 9.52734 80.3354 9.78335 81.2806 10.2954C82.2458 10.7877 83.0137 11.4081 83.5848 12.1564V9.79321H86.9819V26.0698H83.5848V23.6477C83.0137 24.4156 82.2356 25.0558 81.2511 25.5675C80.2663 26.0796 79.1439 26.3358 77.8835 26.3358C76.4852 26.3358 75.2052 25.9813 74.0432 25.2724C72.8814 24.5437 71.9559 23.5393 71.2666 22.2592C70.5969 20.9596 70.2621 19.4922 70.2621 17.8577ZM83.5848 17.9168C83.5848 16.7942 83.3486 15.8194 82.8758 14.9923C82.423 14.1652 81.8222 13.535 81.0739 13.1017C80.3256 12.6685 79.518 12.4518 78.6515 12.4518C77.7849 12.4518 76.9777 12.6685 76.2294 13.1017C75.4807 13.5153 74.8704 14.1356 74.3976 14.9628C73.9449 15.7702 73.7185 16.7351 73.7185 17.8577C73.7185 18.9801 73.9449 19.9649 74.3976 20.8118C74.8704 21.6584 75.4807 22.3084 76.2294 22.7615C76.9973 23.1946 77.8049 23.4111 78.6515 23.4111C79.518 23.4111 80.3256 23.1946 81.0739 22.7615C81.8222 22.328 82.423 21.698 82.8758 20.8708C83.3486 20.0239 83.5848 19.0394 83.5848 17.9168Z" fill="#010101"/>
<path d="M93.2957 12.1859C93.8668 11.4376 94.6449 10.8074 95.6294 10.2954C96.6142 9.78335 97.7268 9.52734 98.9675 9.52734C100.385 9.52734 101.675 9.88183 102.838 10.5908C104.019 11.28 104.945 12.2549 105.614 13.5153C106.284 14.7757 106.619 16.2231 106.619 17.8577C106.619 19.4922 106.284 20.9596 105.614 22.2592C104.945 23.5393 104.019 24.5437 102.838 25.2724C101.675 25.9813 100.385 26.3358 98.9675 26.3358C97.7268 26.3358 96.624 26.0894 95.6592 25.5974C94.694 25.0853 93.9064 24.4549 93.2957 23.7067V33.8095H89.9281V9.79321H93.2957V12.1859ZM103.192 17.8577C103.192 16.7351 102.956 15.7702 102.483 14.9628C102.03 14.1356 101.42 13.5153 100.652 13.1017C99.9028 12.6685 99.0956 12.4518 98.229 12.4518C97.3821 12.4518 96.5749 12.6685 95.8066 13.1017C95.0583 13.535 94.448 14.1652 93.9752 14.9923C93.5225 15.8194 93.2957 16.7942 93.2957 17.9168C93.2957 19.0394 93.5225 20.0239 93.9752 20.8708C94.448 21.698 95.0583 22.328 95.8066 22.7615C96.5749 23.1946 97.3821 23.4111 98.229 23.4111C99.0956 23.4111 99.9028 23.1946 100.652 22.7615C101.42 22.3084 102.03 21.6584 102.483 20.8118C102.956 19.9649 103.192 18.9801 103.192 17.8577Z" fill="#010101"/>
<path d="M115.236 26.2764C113.858 26.2764 112.617 26.0402 111.514 25.5674C110.411 25.0754 109.545 24.3861 108.915 23.4999C108.285 22.6136 107.969 21.5797 107.969 20.3979H111.574C111.652 21.2841 111.997 22.0128 112.607 22.5842C113.237 23.1552 114.114 23.4409 115.236 23.4409C116.398 23.4409 117.304 23.165 117.954 22.6136C118.604 22.0426 118.929 21.314 118.929 20.4278C118.929 19.7385 118.722 19.1773 118.309 18.7438C117.915 18.3105 117.413 17.9757 116.802 17.7394C116.211 17.5031 115.384 17.2471 114.321 16.9714C112.982 16.6169 111.888 16.2624 111.042 15.9079C110.215 15.5338 109.506 14.9627 108.915 14.1946C108.324 13.4266 108.029 12.4025 108.029 11.1224C108.029 9.94081 108.324 8.90691 108.915 8.0207C109.506 7.13448 110.333 6.45507 111.396 5.98241C112.46 5.50975 113.691 5.27344 115.089 5.27344C117.078 5.27344 118.703 5.77561 119.963 6.78C121.243 7.76466 121.952 9.12353 122.09 10.8565H118.368C118.309 10.1082 117.954 9.46815 117.304 8.93642C116.654 8.4047 115.797 8.13883 114.734 8.13883C113.769 8.13883 112.982 8.38501 112.371 8.87735C111.761 9.3697 111.455 10.0787 111.455 11.0043C111.455 11.6344 111.642 12.1563 112.016 12.5699C112.41 12.9638 112.903 13.2789 113.493 13.5152C114.084 13.7515 114.892 14.0075 115.916 14.2832C117.275 14.6574 118.378 15.0316 119.224 15.4058C120.091 15.7799 120.82 16.3609 121.41 17.1486C122.021 17.9167 122.326 18.9505 122.326 20.2505C122.326 21.294 122.041 22.2788 121.469 23.2043C120.918 24.1298 120.101 24.8785 119.018 25.4495C117.954 26.0009 116.694 26.2764 115.236 26.2764Z" fill="#010101"/>
<path d="M133.241 9.52821C134.481 9.52821 135.585 9.79408 136.549 10.3258C137.534 10.8575 138.302 11.6453 138.854 12.689C139.425 13.7328 139.71 14.9931 139.71 16.4702V26.0707H136.372V16.9724C136.372 15.515 136.008 14.4024 135.279 13.6343C134.551 12.8466 133.556 12.4527 132.296 12.4527C131.035 12.4527 130.031 12.8466 129.282 13.6343C128.554 14.4024 128.189 15.515 128.189 16.9724V26.0707H124.822V4.21094H128.189V11.6846C128.761 10.9954 129.479 10.4636 130.346 10.0895C131.232 9.71528 132.197 9.52821 133.241 9.52821Z" fill="#010101"/>
<path d="M149.589 26.3358C148.053 26.3358 146.665 25.9912 145.424 25.3018C144.184 24.5929 143.209 23.608 142.5 22.3477C141.791 21.0677 141.436 19.5908 141.436 17.9168C141.436 16.2625 141.8 14.7953 142.529 13.5153C143.258 12.2352 144.252 11.2505 145.513 10.5612C146.773 9.87197 148.181 9.52734 149.737 9.52734C151.293 9.52734 152.701 9.87197 153.961 10.5612C155.222 11.2505 156.216 12.2352 156.945 13.5153C157.674 14.7953 158.038 16.2625 158.038 17.9168C158.038 19.5711 157.664 21.0382 156.915 22.3182C156.167 23.5982 155.143 24.5929 153.843 25.3018C152.563 25.9912 151.145 26.3358 149.589 26.3358ZM149.589 23.4111C150.456 23.4111 151.263 23.2044 152.012 22.791C152.78 22.3775 153.4 21.757 153.873 20.9297C154.345 20.1029 154.582 19.0984 154.582 17.9168C154.582 16.7352 154.355 15.7407 153.902 14.9332C153.449 14.1061 152.848 13.4857 152.1 13.0722C151.352 12.6586 150.544 12.4518 149.678 12.4518C148.812 12.4518 148.004 12.6586 147.256 13.0722C146.527 13.4857 145.946 14.1061 145.513 14.9332C145.08 15.7407 144.863 16.7352 144.863 17.9168C144.863 19.6694 145.306 21.0284 146.192 21.9932C147.098 22.9387 148.23 23.4111 149.589 23.4111Z" fill="#010101"/>
<path d="M163.818 12.5403V21.5502C163.818 22.1605 163.956 22.6038 164.232 22.8793C164.527 23.1355 165.02 23.2637 165.709 23.2637H167.777V26.0697H165.118C163.602 26.0697 162.44 25.7152 161.633 25.0062C160.825 24.2973 160.421 23.1454 160.421 21.5502V12.5403H158.502V9.79312H160.421V5.74609H163.818V9.79312H167.777V12.5403H163.818Z" fill="#010101"/>
</g>
<defs>
<clipPath id="clip0_131_513">
<rect width="167" height="34" fill="white" transform="translate(0.89978)"/>
</clipPath>
</defs>
</svg>
