<svg width="44" height="52" viewBox="0 0 44 52" fill="none" xmlns="http://www.w3.org/2000/svg">
<g clip-path="url(#clip0_210_615)">
<path d="M35.5309 38.9999H35.4192C35.3905 39.0435 35.3617 39.087 35.3327 39.1303C32.2962 41.1021 28.6592 42.2497 24.75 42.2497C14.1185 42.2497 5.5 33.7618 5.5 23.2914C5.5 19.4414 6.66524 15.8595 8.66733 12.8691C8.71143 12.8405 8.75565 12.812 8.8 12.7837V12.6735C8.75538 12.7384 8.71115 12.8036 8.66733 12.8691C3.44574 16.2598 0 22.0876 0 28.708C0 39.1784 8.61852 47.6664 19.25 47.6664C25.9723 47.6664 31.8898 44.2728 35.3327 39.1303C35.399 39.0872 35.4651 39.0438 35.5309 38.9999Z" fill="#1E3251"/>
<path d="M44.0003 23.2916C44.0003 29.9121 40.5543 35.7396 35.3327 39.1303C37.3348 36.1399 38.5003 32.5582 38.5003 28.7083C38.5003 18.2378 29.8818 9.74992 19.2503 9.74992C15.3411 9.74992 11.7038 10.8973 8.66733 12.8691C12.1102 7.72656 18.028 4.33325 24.7503 4.33325C35.3818 4.33325 44.0003 12.8212 44.0003 23.2916Z" fill="#1E3251"/>
<path d="M35.2003 39.2159C35.2447 39.1877 35.2886 39.1589 35.3327 39.1303C35.2889 39.1958 35.245 39.2612 35.2003 39.3261V39.2159Z" fill="#1E3251"/>
<path d="M8.58097 12.9999C8.60969 12.9563 8.63824 12.9125 8.66733 12.8691C8.60086 12.9122 8.53502 12.9559 8.46914 12.9999H8.58097Z" fill="#1E3251"/>
</g>
<defs>
<clipPath id="clip0_210_615">
<rect width="44" height="52" fill="white"/>
</clipPath>
</defs>
</svg>
