<svg width="106" height="20" viewBox="0 0 106 20" fill="none" xmlns="http://www.w3.org/2000/svg">
<path d="M41.0705 13.02C41.0705 13.9267 40.8571 14.6933 40.4305 15.32C40.0038 15.9333 39.3971 16.4067 38.6105 16.74C37.8238 17.0733 36.8905 17.24 35.8105 17.24C35.1838 17.24 34.5105 17.1667 33.7905 17.02C33.0838 16.8733 32.4638 16.66 31.9305 16.38L32.1705 13.02H32.7105C32.8038 13.02 32.8771 13.04 32.9305 13.08C32.9971 13.12 33.0505 13.2 33.0905 13.32C33.1971 13.56 33.3105 13.9 33.4305 14.34C33.5505 14.78 33.6305 15.22 33.6705 15.66C34.0171 15.8733 34.3971 16.04 34.8105 16.16C35.2371 16.2667 35.6638 16.32 36.0905 16.32C36.9838 16.32 37.7238 16.1 38.3105 15.66C38.8971 15.22 39.1905 14.56 39.1905 13.68C39.1905 13.1067 39.0571 12.6333 38.7905 12.26C38.5238 11.8733 38.1371 11.5467 37.6305 11.28C37.1371 11.0133 36.5371 10.7533 35.8305 10.5C35.2838 10.3 34.7905 10.08 34.3505 9.84C33.9105 9.6 33.5305 9.32667 33.2105 9.02C32.9038 8.71333 32.6638 8.36 32.4905 7.96C32.3305 7.54667 32.2505 7.06667 32.2505 6.52C32.2505 5.77333 32.4305 5.12 32.7905 4.56C33.1505 4 33.6771 3.56 34.3705 3.24C35.0638 2.92 35.9105 2.76 36.9105 2.76C37.4705 2.76 38.0638 2.83333 38.6905 2.98C39.3305 3.12667 39.9238 3.34667 40.4705 3.64L40.2305 6.8H39.6905C39.5838 6.8 39.5038 6.78 39.4505 6.74C39.3971 6.7 39.3438 6.62667 39.2905 6.52C39.1971 6.28 39.0971 5.96667 38.9905 5.58C38.8838 5.19333 38.8105 4.79333 38.7705 4.38C38.4505 4.16667 38.1038 4.00667 37.7305 3.9C37.3705 3.78 37.0105 3.72 36.6505 3.72C35.8771 3.72 35.2571 3.92667 34.7905 4.34C34.3371 4.74 34.1105 5.27333 34.1105 5.94C34.1105 6.63333 34.3238 7.18 34.7505 7.58C35.1905 7.98 35.9038 8.36667 36.8905 8.74C37.4638 8.94 37.9971 9.16 38.4905 9.4C38.9971 9.64 39.4438 9.92 39.8305 10.24C40.2171 10.56 40.5171 10.9467 40.7305 11.4C40.9571 11.8533 41.0705 12.3933 41.0705 13.02ZM49.2348 6.98C49.2348 6.91333 49.3015 6.88 49.4348 6.88H52.3748V15.46C52.3748 15.62 52.4215 15.7333 52.5148 15.8C52.6215 15.8533 52.9015 15.9333 53.3548 16.04C53.4882 16.0667 53.5548 16.14 53.5548 16.26V16.64L50.4948 17.2V15.54C50.0148 16.0467 49.4682 16.46 48.8548 16.78C48.2548 17.0867 47.6348 17.24 46.9948 17.24C46.1548 17.24 45.4815 16.9933 44.9748 16.5C44.4682 16.0067 44.2148 15.28 44.2148 14.32V7.98L42.9348 7.5V6.98C42.9348 6.91333 43.0015 6.88 43.1348 6.88H46.0748V13.84C46.0748 14.4933 46.2282 14.9867 46.5348 15.32C46.8415 15.64 47.2948 15.8 47.8948 15.8C48.3348 15.8 48.7682 15.7333 49.1948 15.6C49.6215 15.4533 50.0615 15.2333 50.5148 14.94V7.98L49.2348 7.5V6.98ZM59.8786 16.9C59.8786 16.9667 59.8119 17 59.6786 17H59.4186H55.5986V16.64C55.5986 16.4533 55.6653 16.34 55.7986 16.3C55.8786 16.2867 55.9519 16.2733 56.0186 16.26C56.0853 16.2333 56.1453 16.2067 56.1986 16.18C56.4119 16.1 56.5586 16.0133 56.6386 15.92C56.7319 15.8267 56.7786 15.7 56.7786 15.54V14.88V8.46C56.7786 8.31333 56.7253 8.20667 56.6186 8.14C56.5119 8.06 56.2386 7.97333 55.7986 7.88C55.6653 7.85333 55.5986 7.78 55.5986 7.66V7.28L58.6786 6.64L58.6386 8.34C59.1053 7.87333 59.6186 7.48667 60.1786 7.18C60.7519 6.86 61.3053 6.68667 61.8386 6.66C62.2919 6.64667 62.7053 6.7 63.0786 6.82C63.4919 6.91333 63.8386 7.10667 64.1186 7.4C64.3986 7.68 64.5986 8.03333 64.7186 8.46C65.1986 7.94 65.7319 7.51333 66.3186 7.18C66.9186 6.84667 67.5119 6.67333 68.0986 6.66C68.4053 6.64667 68.6853 6.66667 68.9386 6.72C69.6053 6.82667 70.1253 7.11333 70.4986 7.58C70.8853 8.03333 71.0919 8.65333 71.1186 9.44C71.1186 9.50667 71.1186 9.58 71.1186 9.66C71.1186 9.72667 71.1186 9.8 71.1186 9.88V16L72.3986 16.38V16.9C72.3986 16.9667 72.3319 17 72.1986 17H68.0986V16.64C68.0986 16.4533 68.1719 16.34 68.3186 16.3C68.3986 16.2867 68.4719 16.2733 68.5386 16.26C68.6053 16.2333 68.6653 16.2067 68.7186 16.18C68.9186 16.1133 69.0586 16.0333 69.1386 15.94C69.2186 15.8333 69.2586 15.7 69.2586 15.54V15.22V10.04C69.2586 9.42667 69.0986 8.94667 68.7786 8.6C68.4586 8.24 67.9719 8.06 67.3186 8.06C66.9719 8.06 66.5786 8.13333 66.1386 8.28C65.6986 8.42667 65.2653 8.65333 64.8386 8.96C64.8519 9.06667 64.8586 9.18 64.8586 9.3C64.8719 9.40667 64.8786 9.52 64.8786 9.64V16.02L66.1186 16.38V16.9C66.1186 16.9667 66.0519 17 65.9186 17H65.8386H61.8586V16.64C61.8586 16.4533 61.9319 16.34 62.0786 16.3C62.2386 16.26 62.3719 16.2267 62.4786 16.2C62.5853 16.16 62.6719 16.1133 62.7386 16.06C62.9119 15.9533 63.0053 15.8067 63.0186 15.62C63.0186 15.5 63.0186 15.3867 63.0186 15.28C63.0186 15.16 63.0186 15.04 63.0186 14.92V10.98C63.0186 10.78 63.0119 10.5867 62.9986 10.4C62.9986 10.2 62.9919 10.0067 62.9786 9.82C62.9653 9.3 62.8053 8.88 62.4986 8.56C62.1919 8.22667 61.7386 8.06 61.1386 8.06C60.3653 8.06 59.5319 8.34667 58.6386 8.92V16.02L59.8786 16.38V16.9ZM78.5309 16.9C78.5309 16.9667 78.4643 17 78.3309 17H78.0709H74.2509V16.64C74.2509 16.4533 74.3176 16.34 74.4509 16.3C74.5309 16.2867 74.6043 16.2733 74.6709 16.26C74.7376 16.2333 74.7976 16.2067 74.8509 16.18C75.0643 16.1 75.2109 16.0133 75.2909 15.92C75.3843 15.8267 75.4309 15.7 75.4309 15.54V14.88V8.46C75.4309 8.31333 75.3776 8.20667 75.2709 8.14C75.1643 8.06 74.8909 7.97333 74.4509 7.88C74.3176 7.85333 74.2509 7.78 74.2509 7.66V7.28L77.3309 6.64L77.2909 8.34C77.7576 7.87333 78.2709 7.48667 78.8309 7.18C79.4043 6.86 79.9576 6.68667 80.4909 6.66C80.9443 6.64667 81.3576 6.7 81.7309 6.82C82.1443 6.91333 82.4909 7.10667 82.7709 7.4C83.0509 7.68 83.2509 8.03333 83.3709 8.46C83.8509 7.94 84.3843 7.51333 84.9709 7.18C85.5709 6.84667 86.1643 6.67333 86.7509 6.66C87.0576 6.64667 87.3376 6.66667 87.5909 6.72C88.2576 6.82667 88.7776 7.11333 89.1509 7.58C89.5376 8.03333 89.7443 8.65333 89.7709 9.44C89.7709 9.50667 89.7709 9.58 89.7709 9.66C89.7709 9.72667 89.7709 9.8 89.7709 9.88V16L91.0509 16.38V16.9C91.0509 16.9667 90.9843 17 90.8509 17H86.7509V16.64C86.7509 16.4533 86.8243 16.34 86.9709 16.3C87.0509 16.2867 87.1243 16.2733 87.1909 16.26C87.2576 16.2333 87.3176 16.2067 87.3709 16.18C87.5709 16.1133 87.7109 16.0333 87.7909 15.94C87.8709 15.8333 87.9109 15.7 87.9109 15.54V15.22V10.04C87.9109 9.42667 87.7509 8.94667 87.4309 8.6C87.1109 8.24 86.6243 8.06 85.9709 8.06C85.6243 8.06 85.2309 8.13333 84.7909 8.28C84.3509 8.42667 83.9176 8.65333 83.4909 8.96C83.5043 9.06667 83.5109 9.18 83.5109 9.3C83.5243 9.40667 83.5309 9.52 83.5309 9.64V16.02L84.7709 16.38V16.9C84.7709 16.9667 84.7043 17 84.5709 17H84.4909H80.5109V16.64C80.5109 16.4533 80.5843 16.34 80.7309 16.3C80.8909 16.26 81.0243 16.2267 81.1309 16.2C81.2376 16.16 81.3243 16.1133 81.3909 16.06C81.5643 15.9533 81.6576 15.8067 81.6709 15.62C81.6709 15.5 81.6709 15.3867 81.6709 15.28C81.6709 15.16 81.6709 15.04 81.6709 14.92V10.98C81.6709 10.78 81.6643 10.5867 81.6509 10.4C81.6509 10.2 81.6443 10.0067 81.6309 9.82C81.6176 9.3 81.4576 8.88 81.1509 8.56C80.8443 8.22667 80.3909 8.06 79.7909 8.06C79.0176 8.06 78.1843 8.34667 77.2909 8.92V16.02L78.5309 16.38V16.9ZM95.0033 4.72C94.7633 4.72 94.5499 4.66667 94.3633 4.56C94.1899 4.45333 94.0499 4.31333 93.9433 4.14C93.8366 3.96667 93.7833 3.77333 93.7833 3.56C93.7833 3.34667 93.8366 3.15333 93.9433 2.98C94.0499 2.79333 94.1899 2.64667 94.3633 2.54C94.5499 2.43333 94.7633 2.38 95.0033 2.38C95.2433 2.38 95.4499 2.43333 95.6233 2.54C95.7966 2.64667 95.9299 2.79333 96.0233 2.98C96.1299 3.15333 96.1833 3.34667 96.1833 3.56C96.1833 3.77333 96.1299 3.96667 96.0233 4.14C95.9299 4.31333 95.7966 4.45333 95.6233 4.56C95.4499 4.66667 95.2433 4.72 95.0033 4.72ZM97.2233 16.9C97.2233 16.9667 97.1566 17 97.0233 17H92.9033V16.64C92.9033 16.4533 92.9699 16.34 93.1033 16.3C93.4633 16.1933 93.7166 16.0933 93.8633 16C94.0099 15.8933 94.0833 15.7467 94.0833 15.56V8.44C94.0833 8.29333 94.0299 8.18667 93.9233 8.12C93.8166 8.05333 93.5433 7.97333 93.1033 7.88C92.9699 7.85333 92.9033 7.78 92.9033 7.66V7.28L95.9833 6.64L95.9433 8.26V16.02L97.2233 16.38V16.9ZM98.6584 7.82V6.88H100.038L101.218 3.92H101.858V6.88H104.578V8.06C104.218 8.02 103.818 7.98667 103.378 7.96C102.938 7.92 102.432 7.89333 101.858 7.88V14.06C101.858 14.7 101.958 15.1733 102.158 15.48C102.358 15.7867 102.672 15.94 103.098 15.94C103.365 15.94 103.638 15.8933 103.918 15.8C104.212 15.7067 104.465 15.5933 104.678 15.46L105.098 16.1C104.765 16.4467 104.332 16.7267 103.798 16.94C103.265 17.14 102.725 17.24 102.178 17.24C101.565 17.24 101.045 17.0333 100.618 16.62C100.205 16.2067 99.9984 15.5067 99.9984 14.52V7.82H98.6584Z" fill="white"/>
<rect x="0.000183105" y="12.1289" width="4.35889" height="4.35889" rx="0.335299" fill="white"/>
<rect x="2.82886" y="6.17969" width="4.35889" height="11.9031" rx="0.335299" transform="rotate(-30 2.82886 6.17969)" fill="white"/>
<rect x="10.0055" y="6.17969" width="4.35889" height="11.9031" rx="0.335299" transform="rotate(-30 10.0055 6.17969)" fill="white"/>
</svg>
